<?xml version="1.0" encoding="utf-8"?>
<!-- Generator: Adobe Illustrator 26.1.0, SVG Export Plug-In . SVG Version: 6.00 Build 0)  -->
<svg version="1.1" id="Layer_1" xmlns="http://www.w3.org/2000/svg" xmlns:xlink="http://www.w3.org/1999/xlink" x="0px" y="0px"
	 viewBox="0 0 1920 1080" style="enable-background:new 0 0 1920 1080;" xml:space="preserve">
<style type="text/css">
	.st0{clip-path:url(#SVGID_00000008110515905441401720000007936154192066613152_);}
	.st1{fill:#193070;}
	.st2{fill:#0F1542;}
	.st3{fill:#101014;}
	.st4{fill:#2664E4;}
	.st5{fill:#1F398E;}
	.st6{fill:#F9D9A6;}
	.st7{fill:#F86F6B;}
	.st8{fill:none;stroke:#0F1542;stroke-width:5.26;stroke-miterlimit:10;}
	.st9{fill:#301EA2;}
	.st10{fill:#3D25DB;}
	.st11{clip-path:url(#SVGID_00000140010235640023986180000017664255132996590722_);}
	.st12{opacity:0.5;fill:#CDC3D0;enable-background:new    ;}
	.st13{fill:#026A9E;}
	.st14{fill:#FDFAFA;}
	.st15{fill:#FFFFFF;}
	.st16{fill:#0D7FC6;}
	.st17{fill:#3A3A3A;}
	.st18{fill:#B7BBBC;}
	.st19{fill:#BCBDBE;}
	.st20{fill:#C4B5FC;}
	.st21{fill:#DCD5F9;}
	.st22{fill:#FAA4A0;}
	.st23{opacity:0.44;fill:#2664E4;enable-background:new    ;}
	.st24{fill:#274459;}
	.st25{fill:#FBEAD5;}
	.st26{fill:#32526E;}
	.st27{fill:#801D15;}
	.st28{fill:#BE113F;}
	.st29{fill:#B95007;}
	.st30{fill:#F8A52F;}
	.st31{opacity:0.11;fill:#2664E4;enable-background:new    ;}
	.st32{opacity:0.3;fill:#121214;enable-background:new    ;}
	.st33{fill:#A3B1B5;}
	.st34{fill:#ACBCBF;}
	.st35{fill:#026A9D;}
	.st36{fill:#F6FADD;}
	.st37{fill:#28B3EA;}
	.st38{fill:none;stroke:#BCBDBE;stroke-width:0.6;stroke-miterlimit:10;}
	.st39{fill:none;}
	.st40{opacity:0.3;enable-background:new    ;}
	.st41{fill:#303033;}
	.st42{fill:#FFF6BF;}
	.st43{fill:#F57319;}
	.st44{fill:#FF9D26;}
	.st45{fill:#A7A9AC;}
	.st46{fill:#BCBEC0;}
	.st47{fill:#939598;}
	.st48{fill:#D62821;}
	.st49{fill:#92201A;}
	.st50{fill:none;stroke:#FFFFFF;stroke-width:0.75;stroke-miterlimit:10;}
	.st51{fill:#E34D40;}
	.st52{opacity:0.3;}
	.st53{fill:#F7EAE6;}
	.st54{fill:#703E03;}
	.st55{fill:#B5ABB6;}
	.st56{fill:none;stroke:#1A9CF1;stroke-width:3;stroke-miterlimit:10;}
	.st57{font-family:'OpenSans-Bold';}
	.st58{font-size:49.42px;}
	.st59{font-size:26.01px;}
	.st60{font-size:70.93px;}
	.st61{fill:#EFC5B3;}
	.st62{fill:#C18F7E;}
	.st63{fill:#F49292;}
	.st64{fill:#E01D4A;}
	.st65{fill:#FFC7C5;}
	.st66{fill:#FBE1E3;}
	.st67{font-size:24.78px;}
</style>
<g id="_158-Day_Counter">
	<g>
		<defs>
			<rect id="SVGID_1_" width="1920" height="1080"/>
		</defs>
		<clipPath id="SVGID_00000110468716020887659680000006414843027321923213_">
			<use xlink:href="#SVGID_1_"  style="overflow:visible;"/>
		</clipPath>
		<g style="clip-path:url(#SVGID_00000110468716020887659680000006414843027321923213_);">
			<rect class="st1" width="1920" height="1080"/>
			<rect class="st2" width="685.9" height="1080"/>
			<polygon class="st3" points="211.9,710 211.9,1137 1709,1137 1709,1009.4 			"/>
			<polygon class="st4" points="1233.5,1264 211,673.6 686.5,399.1 1709,989.5 			"/>
			<polygon class="st5" points="1233.3,1300.4 211.9,710 211.9,673.4 1233.5,1264 			"/>
			<polygon class="st5" points="1233.3,1300.4 1709,1025.8 1709,989.2 1233.5,1264 			"/>
			<polygon class="st6" points="430.2,263.3 -80.7,558.2 -80.7,-180.9 430.2,-475.8 			"/>
			<polygon class="st7" points="457.4,278.1 430,262.3 430,-476.8 457.4,-460.9 			"/>
			<polygon class="st1" points="496.9,301.3 -14.9,596.2 -80.7,558.2 431.2,263.4 			"/>
			<line class="st8" x1="327.8" y1="-416.7" x2="327.8" y2="323"/>
			<polygon class="st1" points="443.6,-243.8 -67,49.7 -74.2,34 -80.7,19.9 430,-273.6 436.8,-258.8 			"/>
			<polygon class="st2" points="443.6,-243.8 -67,49.7 -74.2,34 436.8,-258.8 			"/>
			<polygon class="st1" points="443.6,-182.9 -67,110.6 -74.2,94.9 -80.7,80.8 430,-212.8 436.8,-197.9 			"/>
			<polygon class="st2" points="443.6,-182.9 -67,110.6 -74.2,94.9 436.8,-197.9 			"/>
			<polygon class="st1" points="443.6,-122.1 -67,171.5 -74.2,155.8 -80.7,141.7 430,-151.9 436.8,-137 			"/>
			<polygon class="st2" points="443.6,-122.1 -67,171.5 -74.2,155.8 436.8,-137 			"/>
			<polygon class="st1" points="443.6,-61.2 -67,232.4 -74.2,216.7 -80.7,202.6 430,-91 436.8,-76.1 			"/>
			<polygon class="st2" points="443.6,-61.2 -67,232.4 -74.2,216.7 436.8,-76.1 			"/>
			<polygon class="st1" points="443.6,-0.2 -67,293.3 -74.2,277.6 -80.7,263.5 430,-30.1 436.8,-15.2 			"/>
			<polygon class="st2" points="443.6,-0.2 -67,293.3 -74.2,277.6 436.8,-15.2 			"/>
			<polygon class="st1" points="443.6,60.7 -67,354.2 -74.2,338.5 -80.7,324.4 430,30.8 436.8,45.7 			"/>
			<polygon class="st2" points="443.6,60.7 -67,354.2 -74.2,338.5 436.8,45.7 			"/>
			<polygon class="st1" points="443.6,121.5 -67,415.1 -74.2,399.4 -80.7,385.3 430,91.7 436.8,106.6 			"/>
			<polygon class="st2" points="443.6,121.5 -67,415.1 -74.2,399.4 436.8,106.6 			"/>
			<polygon class="st1" points="443.6,182.4 -67,476 -74.2,460.3 -80.7,446.2 430,152.6 436.8,167.5 			"/>
			<polygon class="st2" points="443.6,182.4 -67,476 -74.2,460.3 436.8,167.5 			"/>
			<polygon class="st1" points="443.6,243.3 -67,536.9 -74.2,521.2 -80.7,507.1 430,213.5 436.8,228.4 			"/>
			<polygon class="st2" points="443.6,243.3 -67,536.9 -74.2,521.2 436.8,228.4 			"/>
			<polygon class="st3" points="1158.6,870.7 1173.9,880 928.4,1024.2 740.2,912.9 685.9,944.9 507.1,754.6 660.2,654.8 			"/>
			<g>
				<path class="st3" d="M512,746.1c-6.4,3.7-6.4,9.6-0.1,13.3l412,239.4c6.3,3.7,16.6,3.7,23,0l210.4-121.5
					c6.4-3.7,6.4-9.6,0.1-13.3l-412-239.4c-6.3-3.7-16.6-3.7-23,0L512,746.1z"/>
			</g>
			<path class="st5" d="M513.3,739.4c-6.4,3.7-6.4,9.6-0.1,13.3l412,239.4c6.3,3.7,16.6,3.7,23,0l210.4-121.5
				c6.4-3.7,6.4-9.6,0.1-13.3l-412-239.4c-6.3-3.7-16.6-3.7-23,0L513.3,739.4z"/>
			<polygon class="st3" points="1401.7,1003.1 1535.9,1082.1 1263,1080.9 			"/>
			<polygon class="st3" points="802.2,565.8 970.2,664.6 945.7,679.2 945.8,684.8 1261.4,868.9 1295.9,895.1 1528.1,1025.9 
				1647.5,953.9 1130.8,652.5 897.2,512.5 			"/>
			<path class="st3" d="M834.6,1033.4l116.5-88.5c0,0,55,0.9,78.3-24.5c3.9-4.2,8.1-8.2,12.6-11.7c3.2-2.5,6.6-4.7,10.3-6.5
				c5.7-2.8,15-7.5,18-9.3c5.6-3.3,17.5-11.9,17.5-11.9l-74.1-22.1L831.2,964.2L771,996.6L834.6,1033.4z"/>
			<polygon class="st3" points="916.9,602.4 939.6,615.5 881.1,649.3 835.9,624.5 			"/>
			<path class="st3" d="M1009.8,804v4.9c-0.1,1.1-0.8,2.1-1.8,2.6l-91.7,52.9c-2.8,1.4-6.1,1.4-8.9,0l-285.9-165
				c-1-0.5-1.7-1.4-1.8-2.6v-4.7L1009.8,804z"/>
			<path class="st9" d="M621.5,694.6l285.9,165c2.8,1.4,6.1,1.4,8.9,0l91.7-52.9c2.5-1.4,2.5-3.7,0-5.2L722.1,636.5
				c-2.8-1.4-6.1-1.4-8.9,0l-91.7,52.9C619.1,690.9,619.1,693.2,621.5,694.6z"/>
			<path class="st5" d="M865.5,771.1c0-0.1,0-0.3,0-0.4c0-0.1,0-0.3,0-0.4c0.1-0.6-0.2-1.2-0.8-1.4l-11.7-6.8
				c-1.3-0.6-2.8-0.6-4.1,0l-9.9,5.7c-0.6,0.2-0.9,0.8-0.8,1.4c0,0.1,0,0.3,0,0.4c0,0.1,0,0.3,0,0.4c-0.1,0.6,0.2,1.2,0.8,1.4
				l11.7,6.8c1.3,0.7,2.8,0.7,4.1,0l9.9-5.7C865.3,772.2,865.6,771.7,865.5,771.1z"/>
			<path class="st5" d="M824.1,707.4c0-0.1,0-0.3,0-0.4c0-0.1,0-0.3,0-0.4c0.1-0.6-0.2-1.2-0.8-1.4l-11.7-6.8
				c-1.3-0.7-2.8-0.7-4.1,0l-9.9,5.7c-0.6,0.2-0.9,0.8-0.8,1.4c0,0.1,0,0.3,0,0.4c0,0.1,0,0.3,0,0.4c-0.1,0.6,0.2,1.2,0.8,1.4
				l11.7,6.8c1.3,0.7,2.8,0.7,4.1,0l9.9-5.7C823.9,708.6,824.2,708,824.1,707.4z"/>
			<path class="st5" d="M786.2,685.5c0-0.1,0-0.3,0-0.4c0-0.1,0-0.3,0-0.4c0.1-0.6-0.2-1.2-0.8-1.4l-11.7-6.8
				c-1.3-0.7-2.8-0.7-4.1,0l-9.9,5.7c-0.5,0.2-0.9,0.8-0.8,1.4c0,0.1,0,0.3,0,0.4c0,0.1,0,0.3,0,0.4c-0.1,0.6,0.2,1.2,0.8,1.4
				l11.7,6.8c1.3,0.6,2.8,0.6,4.1,0l9.9-5.7C786,686.7,786.3,686.1,786.2,685.5z"/>
			<path class="st5" d="M748.3,663.7c0-0.1,0-0.3,0-0.4c0-0.1,0-0.3,0-0.4c0.1-0.6-0.2-1.2-0.8-1.4l-17.8-10.3
				c-1.3-0.7-2.8-0.7-4.1,0l-9.9,5.7c-0.6,0.2-0.9,0.8-0.8,1.4c0,0.1,0,0.3,0,0.4c0,0.1,0,0.3,0,0.4c-0.1,0.6,0.2,1.2,0.8,1.4
				l17.9,10.3c1.3,0.7,2.8,0.7,4.1,0l9.9-5.7C748,664.8,748.4,664.2,748.3,663.7z"/>
			<path class="st5" d="M767.2,674.6c0-0.1,0-0.3,0-0.4c0-0.1,0-0.3,0-0.4c0.1-0.6-0.2-1.2-0.8-1.4l-11.7-6.8
				c-1.3-0.7-2.8-0.7-4.1,0l-9.9,5.7c-0.6,0.2-0.9,0.8-0.8,1.4c0,0.1,0,0.3,0,0.4c0,0.1,0,0.3,0,0.4c-0.1,0.6,0.2,1.2,0.8,1.4
				l11.7,6.8c1.3,0.7,2.8,0.7,4.1,0l9.9-5.7C767,675.8,767.3,675.2,767.2,674.6z"/>
			<path class="st5" d="M805.2,696.5c0-0.1,0-0.3,0-0.4c0-0.1,0-0.3,0-0.4c0.1-0.6-0.2-1.2-0.8-1.4l-11.7-6.8
				c-1.3-0.7-2.8-0.7-4.1,0l-9.9,5.7c-0.6,0.2-0.9,0.8-0.8,1.4c0,0.1,0,0.3,0,0.4c0,0.1,0,0.3,0,0.4c-0.1,0.6,0.2,1.2,0.8,1.4
				l11.7,6.8c1.3,0.7,2.8,0.7,4.1,0l9.9-5.7C804.9,697.6,805.2,697.1,805.2,696.5z"/>
			<path class="st5" d="M724.5,670c0-0.1,0-0.3,0-0.4c0-0.1,0-0.3,0-0.4c0.1-0.6-0.2-1.2-0.8-1.4L712,661c-1.3-0.7-2.8-0.7-4.1,0
				l-9.9,5.7c-0.5,0.2-0.9,0.8-0.8,1.4c0,0.1,0,0.3,0,0.4c0,0.1,0,0.3,0,0.4c-0.1,0.6,0.2,1.2,0.8,1.4l11.7,6.8
				c1.3,0.7,2.8,0.7,4.1,0l9.9-5.7C724.3,671.2,724.6,670.6,724.5,670z"/>
			<path class="st5" d="M876.2,757.6c0-0.1,0-0.3,0-0.4c0-0.1,0-0.3,0-0.4c0.1-0.6-0.2-1.2-0.8-1.4l-11.7-6.8
				c-1.3-0.7-2.8-0.7-4.1,0l-9.9,5.7c-0.6,0.2-0.9,0.8-0.8,1.4c0,0.1,0,0.3,0,0.4c0,0.1,0,0.3,0,0.4c-0.1,0.6,0.2,1.2,0.8,1.4
				l11.7,6.8c1.3,0.7,2.8,0.7,4.1,0l9.9-5.7C875.9,758.7,876.2,758.2,876.2,757.6z"/>
			<path class="st5" d="M743.5,681c0-0.1,0-0.3,0-0.4c0-0.1,0-0.3,0-0.4c0.1-0.6-0.2-1.2-0.8-1.4L731,672c-1.3-0.7-2.8-0.7-4.1,0
				l-9.9,5.7c-0.6,0.2-0.9,0.8-0.8,1.4c0,0.1,0,0.3,0,0.4c0,0.1,0,0.3,0,0.4c-0.1,0.6,0.2,1.2,0.8,1.4l11.7,6.8
				c1.3,0.7,2.8,0.7,4.1,0l9.9-5.7C743.3,682.1,743.6,681.6,743.5,681z"/>
			<path class="st5" d="M762.4,691.9c0-0.1,0-0.3,0-0.4c0-0.1,0-0.3,0-0.4c0.1-0.6-0.2-1.2-0.8-1.4l-11.7-6.8
				c-1.3-0.7-2.8-0.7-4.1,0l-9.9,5.7c-0.5,0.2-0.9,0.8-0.8,1.4c0,0.1,0,0.3,0,0.4c0,0.1,0,0.3,0,0.4c-0.1,0.6,0.2,1.2,0.8,1.4
				l11.7,6.8c1.3,0.6,2.8,0.6,4.1,0l9.9-5.7C762.2,693.1,762.5,692.5,762.4,691.9z"/>
			<path class="st5" d="M781.4,702.9c0-0.1,0-0.3,0-0.4c0-0.1,0-0.3,0-0.4c0.1-0.6-0.2-1.2-0.8-1.4l-11.7-6.8
				c-1.3-0.7-2.8-0.7-4.1,0l-9.9,5.7c-0.6,0.2-0.9,0.8-0.8,1.4c0,0.1,0,0.3,0,0.4c0,0.1,0,0.3,0,0.4c-0.1,0.6,0.2,1.2,0.8,1.4
				l11.7,6.8c1.3,0.7,2.8,0.7,4.1,0l9.9-5.7C781.2,704.1,781.5,703.5,781.4,702.9z"/>
			<path class="st5" d="M857.2,746.6c0-0.1,0-0.3,0-0.4c0-0.1,0-0.3,0-0.4c0.1-0.6-0.2-1.2-0.8-1.4l-11.7-6.8
				c-1.3-0.6-2.8-0.6-4.1,0l-9.9,5.7c-0.6,0.2-0.9,0.8-0.8,1.4c0,0.1,0,0.3,0,0.4c0,0.1,0,0.3,0,0.4c-0.1,0.6,0.2,1.2,0.8,1.4
				l11.7,6.8c1.3,0.7,2.8,0.7,4.1,0l9.9-5.7C857,747.8,857.3,747.2,857.2,746.6z"/>
			<path class="st5" d="M838.2,735.7c0-0.1,0-0.3,0-0.4c0-0.1,0-0.3,0-0.4c0.1-0.6-0.2-1.2-0.8-1.4c-16.1-9.3-11.2-9.5-25.8-1.1
				c-0.5,0.2-0.9,0.8-0.8,1.4c0,0.1,0,0.3,0,0.4c0,0.1,0,0.3,0,0.4c-0.1,0.6,0.2,1.2,0.8,1.4l11.7,6.8c1.3,0.7,2.8,0.7,4.1,0
				l9.9-5.7C838,736.8,838.3,736.3,838.2,735.7z"/>
			<path class="st5" d="M819.3,724.7c0-0.1,0-0.3,0-0.4c0-0.1,0-0.3,0-0.4c0.1-0.6-0.2-1.2-0.8-1.4l-11.7-6.8
				c-1.3-0.7-2.8-0.7-4.1,0l-9.9,5.7c-0.6,0.2-0.9,0.8-0.8,1.4c0,0.1,0,0.3,0,0.4c0,0.1,0,0.3,0,0.4c-0.1,0.6,0.2,1.2,0.8,1.4
				l11.7,6.8c1.3,0.7,2.8,0.7,4.1,0l9.9-5.7C819.1,725.9,819.4,725.3,819.3,724.7z"/>
			<path class="st5" d="M800.3,713.8c0-0.1,0-0.3,0-0.4c0-0.1,0-0.3,0-0.4c0.1-0.6-0.2-1.2-0.8-1.4l-11.7-6.8
				c-1.3-0.7-2.8-0.7-4.1,0l-9.9,5.7c-0.6,0.2-0.9,0.8-0.8,1.4c0,0.1,0,0.3,0,0.4c0,0.1,0,0.3,0,0.4c-0.1,0.6,0.2,1.2,0.8,1.4
				l11.7,6.8c2.6,1.5,4.3-0.1,14-5.7C800.1,715,800.4,714.4,800.3,713.8z"/>
			<path class="st5" d="M834.1,788.7L852,799c1.3,0.7,2.8,0.7,4.1,0l9.9-5.7c0.5-0.2,0.9-0.8,0.8-1.4c0-0.1,0-0.3,0-0.4
				c0-0.1,0-0.3,0-0.4c0.1-0.6-0.2-1.2-0.8-1.4l-17.8-10.3c-1.3-0.7-2.8-0.7-4.1,0l-9.9,5.7c-0.6,0.2-0.9,0.8-0.8,1.4
				c0,0.1,0,0.3,0,0.4c0,0.1,0,0.3,0,0.4C833.3,787.9,833.6,788.5,834.1,788.7z"/>
			<path class="st5" d="M857.9,782.3l11.7,6.8c1.3,0.7,2.8,0.7,4.1,0l9.9-5.7c0.6-0.2,0.9-0.8,0.8-1.4c0-0.1,0-0.3,0-0.4
				c0-0.1,0-0.3,0-0.4c0.1-0.6-0.2-1.2-0.8-1.4l-11.7-6.8c-1.3-0.7-2.8-0.7-4.1,0l-9.9,5.7c-0.6,0.2-0.9,0.8-0.8,1.4
				c0,0.1,0,0.3,0,0.4c0,0.1,0,0.3,0,0.4C857,781.5,857.3,782.1,857.9,782.3z"/>
			<path class="st5" d="M843,718.4c0-0.1,0-0.3,0-0.4c0-0.1,0-0.3,0-0.4c0.1-0.6-0.2-1.2-0.8-1.4l-11.7-6.8c-1.3-0.7-2.8-0.7-4.1,0
				l-9.9,5.7c-0.5,0.2-0.9,0.8-0.8,1.4c0,0.1,0,0.3,0,0.4c0,0.1,0,0.3,0,0.4c-0.1,0.6,0.2,1.2,0.8,1.4c16.5,9.5,11.5,9.3,25.8,1.1
				C842.8,719.5,843.1,719,843,718.4z"/>
			<path class="st5" d="M868.6,768.8l17.8,10.3c1.3,0.6,2.8,0.6,4.1,0l9.9-5.7c0.6-0.2,0.9-0.8,0.8-1.4c0-0.1,0-0.3,0-0.4
				c0-0.1,0-0.3,0-0.4c0.1-0.6-0.2-1.2-0.8-1.4l-17.8-10.3c-1.3-0.7-2.8-0.7-4.1,0l-9.9,5.7c-0.6,0.2-0.9,0.8-0.8,1.4
				c0,0.1,0,0.3,0,0.4c0,0.1,0,0.3,0,0.4C867.7,768,868,768.6,868.6,768.8z"/>
			<path class="st5" d="M862,729.3c0-0.1,0-0.3,0-0.4c0-0.1,0-0.3,0-0.4c0.1-0.6-0.2-1.2-0.8-1.4l-11.7-6.8c-1.3-0.7-2.8-0.7-4.1,0
				l-9.9,5.7c-0.5,0.2-0.9,0.8-0.8,1.4c0,0.1,0,0.3,0,0.4c0,0.1,0,0.3,0,0.4c-0.1,0.6,0.2,1.2,0.8,1.4l11.7,6.8
				c1.3,0.7,2.8,0.7,4.1,0l9.9-5.7C861.8,730.5,862.1,729.9,862,729.3z"/>
			<path class="st5" d="M881,740.3c0-0.1,0-0.3,0-0.4c0-0.1,0-0.3,0-0.4c0.1-0.6-0.2-1.2-0.8-1.4l-11.7-6.8c-1.3-0.7-2.8-0.7-4.1,0
				l-9.9,5.7c-0.6,0.2-0.9,0.8-0.8,1.4c0,0.1,0,0.3,0,0.4c0,0.1,0,0.3,0,0.4c-0.1,0.6,0.2,1.2,0.8,1.4l11.7,6.8
				c1.3,0.7,2.8,0.7,4.1,0l9.9-5.7C880.8,741.4,881.1,740.9,881,740.3z"/>
			<path class="st5" d="M892.3,762.5l11.7,6.8c1.3,0.7,2.8,0.7,4.1,0l9.9-5.7c0.5-0.2,0.9-0.8,0.8-1.4c0-0.1,0-0.3,0-0.4
				c0-0.1,0-0.3,0-0.4c0.1-0.6-0.2-1.2-0.8-1.4l-11.7-6.8c-1.3-0.7-2.8-0.7-4.1,0l-9.9,5.7c-0.5,0.2-0.9,0.8-0.8,1.4
				c0,0.1,0,0.3,0,0.4c0,0.1,0,0.3,0,0.4C891.5,761.7,891.8,762.2,892.3,762.5z"/>
			<path class="st5" d="M899.9,751.2c0-0.1,0-0.3,0-0.4c0-0.1,0-0.3,0-0.4c0.1-0.6-0.2-1.2-0.8-1.4l-11.7-6.8
				c-1.3-0.7-2.8-0.7-4.1,0l-9.9,5.7c-0.6,0.2-0.9,0.8-0.8,1.4c0,0.1,0,0.3,0,0.4c0,0.1,0,0.3,0,0.4c-0.1,0.6,0.2,1.2,0.8,1.4
				l11.7,6.8c1.3,0.7,2.8,0.7,4.1,0l9.9-5.7C899.7,752.4,900,751.8,899.9,751.2z"/>
			<path class="st5" d="M662.8,688c0,0.1,0,0.3,0,0.4c0,0.1,0,0.3,0,0.4c-0.1,0.6,0.2,1.2,0.8,1.4l11.7,6.8c1.3,0.7,2.8,0.7,4.1,0
				l9.9-5.7c0.6-0.2,0.9-0.8,0.8-1.4c0-0.1,0-0.3,0-0.4c0-0.1,0-0.3,0-0.4c0.1-0.6-0.2-1.2-0.8-1.4l-11.7-6.8
				c-1.3-0.7-2.8-0.7-4.1,0l-9.9,5.7C663,686.9,662.7,687.4,662.8,688z"/>
			<path class="st5" d="M700.7,709.9c0,0.1,0,0.3,0,0.4c0,0.1,0,0.3,0,0.4c-0.1,0.6,0.2,1.2,0.8,1.4l11.7,6.8c1.3,0.7,2.8,0.7,4.1,0
				l9.9-5.7c0.5-0.2,0.9-0.8,0.8-1.4c0-0.1,0-0.3,0-0.4c0-0.1,0-0.3,0-0.4c0.1-0.6-0.2-1.2-0.8-1.4l-11.7-6.8
				c-1.3-0.6-2.8-0.6-4.1,0l-9.9,5.7C700.9,708.8,700.6,709.3,700.7,709.9z"/>
			<path class="st5" d="M776.5,753.7c0,0.1,0,0.3,0,0.4c0,0.1,0,0.3,0,0.4c-0.1,0.6,0.2,1.2,0.8,1.4l11.7,6.8c1.3,0.7,2.8,0.7,4.1,0
				l9.9-5.7c0.6-0.2,0.9-0.8,0.8-1.4c0-0.1,0-0.3,0-0.4c0-0.1,0-0.3,0-0.4c0.1-0.6-0.2-1.2-0.8-1.4l-11.7-6.8
				c-1.3-0.7-2.8-0.7-4.1,0l-9.9,5.7C776.7,752.6,776.4,753.1,776.5,753.7z"/>
			<path class="st5" d="M738.6,731.8c0,0.1,0,0.3,0,0.4c0,0.1,0,0.3,0,0.4c-0.1,0.6,0.2,1.2,0.8,1.4l11.7,6.8c1.3,0.7,2.8,0.7,4.1,0
				l9.9-5.7c0.5-0.2,0.9-0.8,0.8-1.4c0-0.1,0-0.3,0-0.4c0-0.1,0-0.3,0-0.4c0.1-0.6-0.2-1.2-0.8-1.4l-11.7-6.8
				c-1.3-0.7-2.8-0.7-4.1,0l-9.9,5.7C738.8,730.6,738.5,731.2,738.6,731.8z"/>
			<path class="st5" d="M757.5,742.8c0,0.1,0,0.3,0,0.4c0,0.1,0,0.3,0,0.4c-0.1,0.6,0.2,1.2,0.8,1.4l11.7,6.8c1.3,0.7,2.8,0.7,4.1,0
				l9.9-5.7c0.5-0.2,0.9-0.8,0.8-1.4c0-0.1,0-0.3,0-0.4c0-0.1,0-0.3,0-0.4c0.1-0.6-0.2-1.2-0.8-1.4l-11.7-6.8
				c-1.3-0.6-2.8-0.6-4.1,0l-9.9,5.7C757.8,741.6,757.4,742.2,757.5,742.8z"/>
			<path class="st5" d="M795.4,764.6c0,0.1,0,0.3,0,0.4c0,0.1,0,0.3,0,0.4c-0.1,0.6,0.2,1.2,0.8,1.4l11.8,6.8c1.3,0.6,2.8,0.6,4.1,0
				l9.9-5.7c0.5-0.2,0.9-0.8,0.8-1.4c0-0.1,0-0.3,0-0.4c0-0.1,0-0.3,0-0.4c0.1-0.6-0.2-1.2-0.8-1.4l-11.7-6.8
				c-1.3-0.7-2.8-0.7-4.1,0l-9.9,5.7C795.7,763.5,795.4,764,795.4,764.6z"/>
			<path class="st5" d="M814.4,775.6c0,0.1,0,0.3,0,0.4c0,0.1,0,0.3,0,0.4c-0.1,0.6,0.2,1.2,0.8,1.4l11.7,6.8c1.3,0.7,2.8,0.7,4.1,0
				l9.9-5.7c0.6-0.2,0.9-0.8,0.8-1.4c0-0.1,0-0.3,0-0.4c0-0.1,0-0.3,0-0.4c0.1-0.6-0.2-1.2-0.8-1.4l-11.7-6.8
				c-1.3-0.6-2.8-0.6-4.1,0l-9.9,5.7C814.6,774.4,814.3,775,814.4,775.6z"/>
			<path class="st5" d="M719.6,720.9c0,0.1,0,0.3,0,0.4c0,0.1,0,0.3,0,0.4c-0.1,0.6,0.2,1.2,0.8,1.4l11.7,6.8c1.3,0.7,2.8,0.7,4.1,0
				l9.9-5.7c0.6-0.2,0.9-0.8,0.8-1.4c0-0.1,0-0.3,0-0.4c0-0.1,0-0.3,0-0.4c0.1-0.6-0.2-1.2-0.8-1.4l-11.7-6.8
				c-1.3-0.7-2.8-0.7-4.1,0l-9.9,5.7C719.9,719.7,719.5,720.3,719.6,720.9z"/>
			<path class="st5" d="M681.7,699c0,0.1,0,0.3,0,0.4c0,0.1,0,0.3,0,0.4c-0.1,0.6,0.2,1.2,0.8,1.4l11.7,6.8c1.3,0.7,2.8,0.7,4.1,0
				l9.9-5.7c0.6-0.2,0.9-0.8,0.8-1.4c0-0.1,0-0.3,0-0.4c0-0.1,0-0.3,0-0.4c0.1-0.6-0.2-1.2-0.8-1.4l-11.7-6.8
				c-1.3-0.7-2.8-0.7-4.1,0l-9.9,5.7C682,697.9,681.6,698.4,681.7,699z"/>
			<path class="st5" d="M784.8,778.1c0,0.1,0,0.3,0,0.4c0,0.1,0,0.3,0,0.4c-0.1,0.6,0.2,1.2,0.8,1.4l11.7,6.8c1.3,0.7,2.8,0.7,4.1,0
				l9.9-5.7c0.6-0.2,0.9-0.8,0.8-1.4c0-0.1,0-0.3,0-0.4c0-0.1,0-0.3,0-0.4c0.1-0.6-0.2-1.2-0.8-1.4l-11.7-6.8
				c-1.3-0.7-2.8-0.7-4.1,0l-9.9,5.7C785.1,776.9,784.7,777.5,784.8,778.1z"/>
			<path class="st5" d="M765.9,767.2c0,0.1,0,0.3,0,0.4c0,0.1,0,0.3,0,0.4c-0.1,0.6,0.2,1.2,0.8,1.4l11.7,6.8c1.3,0.7,2.8,0.7,4.1,0
				l9.9-5.7c0.5-0.2,0.9-0.8,0.8-1.4c0-0.1,0-0.3,0-0.4c0-0.1,0-0.3,0-0.4c0.1-0.6-0.2-1.2-0.8-1.4l-11.7-6.8
				c-1.3-0.7-2.8-0.7-4.1,0l-9.9,5.7C766.1,766,765.8,766.6,765.9,767.2z"/>
			<path class="st5" d="M803.8,789c0,0.1,0,0.3,0,0.4c0,0.1,0,0.3,0,0.4c-0.1,0.6,0.2,1.2,0.8,1.4l11.7,6.7c1.3,0.7,2.8,0.7,4.1,0
				l9.9-5.7c0.6-0.2,0.9-0.8,0.8-1.4c0-0.1,0-0.3,0-0.4c0-0.1,0-0.3,0-0.4c0.1-0.6-0.2-1.2-0.8-1.4l-11.7-6.7
				c-1.3-0.7-2.8-0.7-4.1,0l-9.9,5.7C804,787.9,803.7,788.5,803.8,789z"/>
			<path class="st5" d="M822.7,800c0,0.1,0,0.3,0,0.4c0,0.1,0,0.3,0,0.4c-0.1,0.6,0.2,1.2,0.8,1.4l11.7,6.8c1.3,0.7,2.8,0.7,4.1,0
				l9.9-5.7c0.5-0.2,0.9-0.8,0.8-1.4c0-0.1,0-0.3,0-0.4c0-0.1,0-0.3,0-0.4c0.1-0.6-0.2-1.2-0.8-1.4l-11.7-6.8
				c-1.3-0.7-2.8-0.7-4.1,0l-9.9,5.7C823,798.9,822.7,799.4,822.7,800z"/>
			<path class="st5" d="M680.4,678.1c0,0.1,0,0.3,0,0.4c0,0.1,0,0.3,0,0.4c-0.1,0.6,0.2,1.2,0.8,1.4l17.8,10.3
				c1.3,0.7,2.8,0.7,4.1,0l9.9-5.7c0.6-0.2,0.9-0.8,0.8-1.4c0-0.1,0-0.3,0-0.4c0-0.1,0-0.3,0-0.4c0.1-0.6-0.2-1.2-0.8-1.4L695.2,671
				c-1.3-0.7-2.8-0.7-4.1,0l-9.9,5.7C680.6,676.9,680.3,677.5,680.4,678.1z"/>
			<path class="st5" d="M646.2,698c0,0.1,0,0.3,0,0.4c0,0.1,0,0.3,0,0.4c-0.1,0.6,0.2,1.2,0.8,1.4l17.8,10.3c1.3,0.7,2.8,0.7,4.1,0
				l9.9-5.7c0.6-0.2,0.9-0.8,0.8-1.4c0-0.1,0-0.3,0-0.4c0-0.1,0-0.3,0-0.4c0.1-0.6-0.2-1.2-0.8-1.4L661,691c-1.3-0.7-2.8-0.7-4.1,0
				l-9.9,5.7C646.5,696.9,646.1,697.4,646.2,698z"/>
			<path class="st5" d="M670.8,712.5c0,0.1,0,0.3,0,0.4c0,0.1,0,0.3,0,0.4c-0.1,0.6,0.2,1.2,0.8,1.4l87.8,50.7
				c1.3,0.7,2.8,0.7,4.1,0l9.9-5.7c0.6-0.2,0.9-0.8,0.8-1.4c0-0.1,0-0.3,0-0.4c0-0.1,0-0.3,0-0.4c0.1-0.6-0.2-1.2-0.8-1.4
				l-87.8-50.7c-1.3-0.7-2.8-0.7-4.1,0l-9.9,5.7C671,711.3,670.7,711.9,670.8,712.5z"/>
			<path class="st5" d="M743.4,714.5c0,0.1,0,0.3,0,0.4c0,0.1,0,0.3,0,0.4c-0.1,0.6,0.2,1.2,0.8,1.4l11.7,6.8c1.3,0.7,2.8,0.7,4.1,0
				l9.9-5.7c0.6-0.2,0.9-0.8,0.8-1.4c0-0.1,0-0.3,0-0.4c0-0.1,0-0.3,0-0.4c0.1-0.6-0.2-1.2-0.8-1.4l-11.7-6.8
				c-1.3-0.7-2.8-0.7-4.1,0l-9.9,5.7C743.6,713.3,743.3,713.9,743.4,714.5z"/>
			<path class="st5" d="M762.3,725.4c0,0.1,0,0.3,0,0.4c0,0.1,0,0.3,0,0.4c-0.1,0.6,0.2,1.2,0.8,1.4l11.7,6.8c1.3,0.7,2.8,0.7,4.1,0
				l9.9-5.7c0.5-0.2,0.9-0.8,0.8-1.4c0-0.1,0-0.3,0-0.4c0-0.1,0-0.3,0-0.4c0.1-0.6-0.2-1.2-0.8-1.4l-11.7-6.8
				c-1.3-0.7-2.8-0.7-4.1,0l-9.9,5.7C762.6,724.3,762.3,724.8,762.3,725.4z"/>
			<path class="st5" d="M724.4,703.5c0,0.1,0,0.3,0,0.4c0,0.1,0,0.3,0,0.4c-0.1,0.6,0.2,1.2,0.8,1.4l11.8,6.8c1.3,0.7,2.8,0.7,4.1,0
				l9.9-5.7c0.6-0.2,0.9-0.8,0.8-1.4c0-0.1,0-0.3,0-0.4c0-0.1,0-0.3,0-0.4c0.1-0.6-0.2-1.2-0.8-1.4l-11.7-6.8
				c-1.3-0.7-2.8-0.7-4.1,0l-9.9,5.7C724.7,702.4,724.4,702.9,724.4,703.5z"/>
			<path class="st5" d="M705.5,692.6c0,0.1,0,0.3,0,0.4c0,0.1,0,0.3,0,0.4c-0.1,0.6,0.2,1.2,0.8,1.4l11.7,6.8c1.3,0.7,2.8,0.7,4.1,0
				l9.9-5.7c0.5-0.2,0.9-0.8,0.8-1.4c0-0.1,0-0.3,0-0.4c0-0.1,0-0.3,0-0.4c0.1-0.6-0.2-1.2-0.8-1.4l-11.7-6.8
				c-1.3-0.7-2.8-0.7-4.1,0l-9.9,5.7C705.7,691.4,705.4,692,705.5,692.6z"/>
			<path class="st5" d="M781.3,736.4c0,0.1,0,0.3,0,0.4c0,0.1,0,0.3,0,0.4c-0.1,0.6,0.2,1.2,0.8,1.4l11.7,6.8c1.3,0.7,2.8,0.7,4.1,0
				l9.9-5.7c0.6-0.2,0.9-0.8,0.8-1.4c0-0.1,0-0.3,0-0.4c0-0.1,0-0.3,0-0.4c0.1-0.6-0.2-1.2-0.8-1.4l-11.7-6.8
				c-1.3-0.6-2.8-0.6-4.1,0l-9.9,5.7C781.5,735.2,781.2,735.8,781.3,736.4z"/>
			<path class="st5" d="M819.2,758.3c0,0.1,0,0.3,0,0.4c0,0.1,0,0.3,0,0.4c-0.1,0.6,0.2,1.2,0.8,1.4l11.7,6.8c1.3,0.7,2.8,0.7,4.1,0
				l9.9-5.7c0.5-0.2,0.9-0.8,0.8-1.4c0-0.1,0-0.3,0-0.4c0-0.1,0-0.3,0-0.4c0.1-0.6-0.2-1.2-0.8-1.4l-11.7-6.8
				c-1.3-0.7-2.8-0.7-4.1,0l-9.9,5.7C819.4,757.1,819.1,757.7,819.2,758.3z"/>
			<path class="st5" d="M800.2,747.3c0,0.1,0,0.3,0,0.4c0,0.1,0,0.3,0,0.4c-0.1,0.6,0.2,1.2,0.8,1.4l11.7,6.8c1.3,0.7,2.8,0.7,4.1,0
				l9.9-5.7c0.6-0.2,0.9-0.8,0.8-1.4c0-0.1,0-0.3,0-0.4c0-0.1,0-0.3,0-0.4c0.1-0.6-0.2-1.2-0.8-1.4l-11.8-6.8
				c-1.3-0.7-2.8-0.7-4.1,0l-9.9,5.7C800.5,746.2,800.2,746.7,800.2,747.3z"/>
			<path class="st10" d="M892.3,758.3l9.9-5.7c1.3-0.7,2.8-0.7,4.1,0l11.7,6.8c0.7,0.2,1,0.9,0.8,1.6c-0.1,0.4-0.4,0.6-0.8,0.8
				l-9.9,5.7c-1.3,0.7-2.8,0.7-4.1,0l-11.7-6.8c-0.7-0.2-1-0.9-0.8-1.6C891.7,758.8,892,758.5,892.3,758.3z"/>
			<path class="st10" d="M873.4,749.8l11.7,6.8c1.3,0.7,2.8,0.7,4.1,0l9.9-5.7c0.7-0.2,1-0.9,0.8-1.6c-0.1-0.4-0.4-0.7-0.8-0.8
				l-11.7-6.8c-1.3-0.7-2.8-0.7-4.1,0l-9.9,5.7c-0.7,0.2-1,0.9-0.8,1.6C872.7,749.4,873,749.7,873.4,749.8z"/>
			<path class="st10" d="M854.4,738.8l11.7,6.8c1.3,0.7,2.8,0.7,4.1,0l9.9-5.7c0.7-0.2,1-0.9,0.8-1.6c-0.1-0.4-0.4-0.7-0.8-0.8
				l-11.7-6.8c-1.3-0.6-2.8-0.6-4.1,0l-9.9,5.7c-0.7,0.2-1,0.9-0.8,1.6C853.8,738.4,854.1,738.7,854.4,738.8z"/>
			<path class="st10" d="M835.5,727.9l11.7,6.8c1.3,0.7,2.8,0.7,4.1,0l9.9-5.7c0.7-0.2,1-0.9,0.8-1.6c-0.1-0.4-0.4-0.6-0.8-0.8
				l-11.7-6.8c-1.3-0.7-2.8-0.7-4.1,0l-9.9,5.7c-0.7,0.2-1,0.9-0.8,1.6C834.8,727.5,835.1,727.8,835.5,727.9z"/>
			<path class="st10" d="M816.5,717l11.7,6.8c1.3,0.7,2.8,0.7,4.1,0l9.9-5.7c0.7-0.2,1-0.9,0.8-1.6c-0.1-0.4-0.4-0.6-0.8-0.8
				l-11.7-6.8c-1.3-0.7-2.8-0.7-4.1,0l-9.9,5.7c-0.7,0.2-1,0.9-0.8,1.6C815.9,716.6,816.2,716.9,816.5,717z"/>
			<path class="st10" d="M797.6,706l11.7,6.8c1.3,0.7,2.8,0.7,4.1,0l9.9-5.7c0.7-0.2,1-0.9,0.8-1.6c-0.1-0.4-0.4-0.7-0.8-0.8
				l-11.7-6.8c-1.3-0.6-2.8-0.6-4.1,0l-9.9,5.7c-0.7,0.2-1,0.9-0.8,1.6C796.9,705.6,797.2,705.9,797.6,706z"/>
			<path class="st10" d="M778.6,695.1l11.7,6.8c1.3,0.7,2.8,0.7,4.1,0l9.9-5.7c0.7-0.2,1-0.9,0.8-1.6c-0.1-0.4-0.4-0.6-0.8-0.8
				l-11.7-6.8c-1.3-0.7-2.8-0.7-4.1,0l-9.9,5.7c-0.7,0.2-1,0.9-0.8,1.6C778,694.7,778.3,695,778.6,695.1z"/>
			<path class="st10" d="M759.7,684.1l11.7,6.8c1.3,0.7,2.8,0.7,4.1,0l9.9-5.7c0.7-0.2,1-0.9,0.8-1.6c-0.1-0.4-0.4-0.6-0.8-0.8
				l-11.7-6.8c-1.3-0.7-2.8-0.7-4.1,0l-9.9,5.7c-0.7,0.2-1,0.9-0.8,1.6C759,683.7,759.3,684,759.7,684.1z"/>
			<path class="st10" d="M740.7,673.2l11.7,6.8c1.3,0.7,2.8,0.7,4.1,0l9.9-5.7c0.7-0.2,1-0.9,0.8-1.6c-0.1-0.4-0.4-0.7-0.8-0.8
				l-11.7-6.8c-1.3-0.7-2.8-0.7-4.1,0l-9.9,5.7c-0.7,0.2-1,1-0.7,1.6C740.1,672.8,740.4,673.1,740.7,673.2z"/>
			<path class="st10" d="M715.6,658.7l17.8,10.3c1.3,0.7,2.8,0.7,4.1,0l9.9-5.7c0.7-0.2,1-0.9,0.8-1.6c-0.1-0.4-0.4-0.6-0.8-0.8
				l-17.8-10.3c-1.3-0.6-2.8-0.6-4.1,0l-9.9,5.7c-0.7,0.2-1,0.9-0.8,1.6C714.9,658.3,715.2,658.6,715.6,658.7z"/>
			<path class="st10" d="M868.6,767.1l17.8,10.3c1.3,0.7,2.8,0.7,4.1,0l9.9-5.7c0.7-0.2,1-0.9,0.8-1.6c-0.1-0.4-0.4-0.6-0.8-0.8
				L882.6,759c-1.3-0.7-2.8-0.7-4.1,0l-9.9,5.7c-0.7,0.2-1,0.9-0.8,1.6C867.9,766.7,868.2,767,868.6,767.1z"/>
			<path class="st10" d="M849.6,756.2l11.7,6.8c1.3,0.7,2.8,0.7,4.1,0l9.9-5.7c0.7-0.2,1-0.9,0.8-1.6c-0.1-0.4-0.4-0.7-0.8-0.8
				l-11.7-6.8c-1.3-0.7-2.8-0.7-4.1,0l-9.9,5.7c-0.7,0.2-1,0.9-0.8,1.6C849,755.7,849.3,756,849.6,756.2z"/>
			<path class="st10" d="M830.7,745.2l11.7,6.8c1.3,0.6,2.8,0.6,4.1,0l9.9-5.7c0.7-0.2,1-0.9,0.8-1.6c-0.1-0.4-0.4-0.7-0.8-0.8
				l-11.7-6.8c-1.3-0.6-2.8-0.6-4.1,0l-9.9,5.7c-0.7,0.2-1,0.9-0.8,1.6C830,744.8,830.3,745.1,830.7,745.2z"/>
			<path class="st10" d="M811.7,734.3l11.7,6.8c1.3,0.7,2.8,0.7,4.1,0l9.9-5.7c0.7-0.2,1-0.9,0.8-1.6c-0.1-0.4-0.4-0.6-0.8-0.8
				l-11.7-6.8c-1.3-0.7-2.8-0.7-4.1,0l-9.9,5.7c-0.7,0.2-1,0.9-0.8,1.6C811,733.9,811.3,734.2,811.7,734.3z"/>
			<path class="st10" d="M792.8,723.3l11.7,6.8c1.3,0.7,2.8,0.7,4.1,0l9.9-5.7c0.7-0.2,1-0.9,0.8-1.6c-0.1-0.4-0.4-0.6-0.8-0.8
				l-11.7-6.8c-1.3-0.7-2.8-0.7-4.1,0l-9.9,5.7c-0.7,0.2-1,0.9-0.8,1.6C792.1,722.9,792.4,723.2,792.8,723.3z"/>
			<path class="st10" d="M773.8,712.4l11.7,6.8c1.3,0.7,2.8,0.7,4.1,0l9.9-5.7c0.7-0.2,1-0.9,0.8-1.6c-0.1-0.4-0.4-0.7-0.8-0.8
				l-11.7-6.8c-1.3-0.6-2.8-0.6-4.1,0l-9.9,5.7c-0.7,0.2-1,0.9-0.8,1.6C773.1,712,773.4,712.3,773.8,712.4z"/>
			<path class="st10" d="M754.8,701.5l11.7,6.8c1.3,0.7,2.8,0.7,4.1,0l9.9-5.7c0.7-0.2,1-0.9,0.8-1.6c-0.1-0.4-0.4-0.6-0.8-0.8
				l-11.7-6.8c-1.3-0.7-2.8-0.7-4.1,0l-9.9,5.7c-0.7,0.2-1,0.9-0.8,1.6C754.2,701,754.5,701.3,754.8,701.5z"/>
			<path class="st10" d="M735.9,690.5l11.7,6.8c1.3,0.7,2.8,0.7,4.1,0l9.9-5.7c0.7-0.2,1-0.9,0.8-1.6c-0.1-0.4-0.4-0.6-0.8-0.8
				l-11.7-6.8c-1.3-0.7-2.8-0.7-4.1,0l-9.9,5.7c-0.7,0.2-1,0.9-0.8,1.6C735.3,690.1,735.5,690.4,735.9,690.5z"/>
			<path class="st10" d="M717,679.6l11.7,6.8c1.3,0.7,2.8,0.7,4.1,0l9.9-5.7c0.7-0.2,1-0.9,0.8-1.6c-0.1-0.4-0.4-0.7-0.8-0.8
				l-11.7-6.8c-1.3-0.6-2.8-0.6-4.1,0l-9.9,5.7c-0.7,0.2-1,0.9-0.8,1.6C716.3,679.1,716.6,679.4,717,679.6z"/>
			<path class="st10" d="M698,668.6l11.7,6.8c1.3,0.7,2.8,0.7,4.1,0l9.9-5.7c0.7-0.2,1-0.9,0.8-1.6c-0.1-0.4-0.4-0.7-0.8-0.8
				l-11.7-6.8c-1.3-0.7-2.8-0.7-4.1,0l-9.9,5.7c-0.7,0.2-1,0.9-0.8,1.6C697.3,668.2,697.6,668.5,698,668.6z"/>
			<path class="st10" d="M857.9,780.6l11.7,6.8c1.3,0.7,2.8,0.7,4.1,0l9.9-5.7c0.7-0.2,1-0.9,0.8-1.6c-0.1-0.4-0.4-0.7-0.8-0.8
				l-11.7-6.8c-1.3-0.7-2.8-0.7-4.1,0l-9.9,5.7c-0.7,0.2-1,0.9-0.8,1.6C857.3,780.2,857.5,780.5,857.9,780.6z"/>
			<path class="st10" d="M838.9,769.7l11.7,6.8c1.3,0.6,2.8,0.6,4.1,0l9.9-5.7c0.7-0.2,1-0.9,0.8-1.6c-0.1-0.4-0.4-0.7-0.8-0.8
				l-11.7-6.8c-1.3-0.7-2.8-0.7-4.1,0l-9.9,5.7c-0.7,0.2-1,0.9-0.8,1.6C838.3,769.2,838.6,769.5,838.9,769.7z"/>
			<path class="st10" d="M820,758.7l11.7,6.8c1.3,0.7,2.8,0.7,4.1,0l9.9-5.7c0.7-0.2,1-0.9,0.8-1.6c-0.1-0.4-0.4-0.6-0.8-0.8
				l-11.7-6.8c-1.3-0.7-2.8-0.7-4.1,0l-9.9,5.7c-0.7,0.2-1,0.9-0.8,1.6C819.4,758.3,819.6,758.6,820,758.7z"/>
			<path class="st10" d="M801,747.8l11.7,6.8c1.3,0.7,2.8,0.7,4.1,0l9.9-5.7c0.7-0.2,1-0.9,0.8-1.6c-0.1-0.4-0.4-0.7-0.8-0.8
				l-11.7-6.8c-1.3-0.7-2.8-0.7-4.1,0l-9.9,5.7c-0.7,0.2-1,0.9-0.8,1.6C800.3,747.4,800.6,747.7,801,747.8z"/>
			<path class="st10" d="M823.5,800.5l11.7,6.8c1.3,0.7,2.8,0.7,4.1,0l9.9-5.7c0.7-0.2,1-0.9,0.8-1.6c-0.1-0.4-0.4-0.6-0.8-0.8
				l-11.7-6.8c-1.3-0.7-2.8-0.7-4.1,0l-9.9,5.7c-0.7,0.2-1,0.9-0.8,1.6C822.9,800,823.2,800.3,823.5,800.5z"/>
			<path class="st10" d="M804.6,789.5l11.7,6.8c1.3,0.7,2.8,0.7,4.1,0l9.9-5.7c0.7-0.2,1-0.9,0.8-1.6c-0.1-0.4-0.4-0.7-0.8-0.8
				l-11.7-6.8c-1.3-0.7-2.8-0.7-4.1,0l-9.9,5.7c-0.7,0.2-1,0.9-0.8,1.6C803.9,789.1,804.2,789.4,804.6,789.5z"/>
			<path class="st10" d="M785.6,778.6l11.7,6.8c1.3,0.7,2.8,0.7,4.1,0l9.9-5.7c0.7-0.2,1-0.9,0.8-1.6c-0.1-0.4-0.4-0.7-0.8-0.8
				l-11.7-6.8c-1.3-0.6-2.8-0.6-4.1,0l-9.9,5.7c-0.7,0.2-1,0.9-0.8,1.6C784.9,778.2,785.2,778.5,785.6,778.6z"/>
			<path class="st10" d="M766.7,767.6l11.7,6.8c1.3,0.7,2.8,0.7,4.1,0l9.9-5.7c0.7-0.2,1-0.9,0.8-1.6c-0.1-0.4-0.4-0.6-0.8-0.8
				l-11.7-6.8c-1.3-0.7-2.8-0.7-4.1,0l-9.9,5.7c-0.7,0.2-1,0.9-0.8,1.6C766,767.2,766.3,767.5,766.7,767.6z"/>
			<path class="st10" d="M646.9,698.5l17.8,10.3c1.3,0.7,2.8,0.7,4.1,0l9.9-5.7c0.7-0.2,1-0.9,0.8-1.6c-0.1-0.4-0.4-0.6-0.8-0.8
				L661,690.4c-1.3-0.7-2.8-0.7-4.1,0l-9.9,5.7c-0.7,0.2-1,0.9-0.8,1.6C646.3,698.1,646.6,698.4,646.9,698.5z"/>
			<path class="st10" d="M782.1,736.8l11.7,6.8c1.3,0.6,2.8,0.6,4.1,0l9.9-5.7c0.7-0.2,1-0.9,0.8-1.6c-0.1-0.4-0.4-0.7-0.8-0.8
				l-11.7-6.8c-1.3-0.7-2.8-0.7-4.1,0l-9.9,5.7c-0.7,0.2-1,0.9-0.8,1.6C781.4,736.4,781.7,736.7,782.1,736.8z"/>
			<path class="st10" d="M763.1,725.9l11.7,6.8c1.3,0.7,2.8,0.7,4.1,0l9.9-5.7c0.7-0.2,1-0.9,0.8-1.6c-0.1-0.4-0.4-0.6-0.8-0.8
				l-11.7-6.8c-1.3-0.7-2.8-0.7-4.1,0l-9.9,5.7c-0.7,0.2-1,0.9-0.8,1.6C762.5,725.5,762.8,725.8,763.1,725.9z"/>
			<path class="st10" d="M744.2,715l11.7,6.8c1.3,0.7,2.8,0.7,4.1,0l9.9-5.7c0.7-0.2,1-0.9,0.8-1.6c-0.1-0.4-0.4-0.7-0.8-0.8
				l-11.7-6.8c-1.3-0.7-2.8-0.7-4.1,0l-9.9,5.7c-0.7,0.2-1,0.9-0.8,1.6C743.5,714.6,743.8,714.9,744.2,715z"/>
			<path class="st10" d="M725.2,704l11.8,6.8c1.3,0.7,2.8,0.7,4.1,0l9.9-5.7c0.7-0.2,1-0.9,0.8-1.6c-0.1-0.4-0.4-0.7-0.8-0.8
				l-11.7-6.8c-1.3-0.7-2.8-0.7-4.1,0l-9.9,5.7c-0.7,0.2-1,0.9-0.8,1.6C724.6,703.6,724.9,703.9,725.2,704z"/>
			<path class="st10" d="M706.3,693.1l11.7,6.8c1.3,0.7,2.8,0.7,4.1,0l9.9-5.7c0.7-0.2,1-0.9,0.8-1.6c-0.1-0.4-0.4-0.6-0.8-0.8
				l-11.7-6.8c-1.3-0.7-2.8-0.7-4.1,0l-9.9,5.7c-0.7,0.2-1,1-0.8,1.6C705.6,692.7,705.9,692.9,706.3,693.1z"/>
			<path class="st10" d="M681.2,678.6l17.8,10.3c1.3,0.7,2.8,0.7,4.1,0l9.9-5.7c0.7-0.2,1-0.9,0.8-1.6c-0.1-0.4-0.4-0.6-0.8-0.8
				l-17.8-10.3c-1.3-0.7-2.8-0.7-4.1,0l-9.9,5.7c-0.7,0.2-1,0.9-0.8,1.6C680.6,678.2,680.8,678.5,681.2,678.6z"/>
			<path class="st10" d="M834.1,787l17.9,10.3c1.3,0.6,2.8,0.6,4.1,0l9.9-5.7c0.7-0.2,1-0.9,0.8-1.6c-0.1-0.4-0.4-0.7-0.8-0.8
				l-17.8-10.3c-1.3-0.7-2.8-0.7-4.1,0l-9.9,5.7c-0.7,0.2-1,0.9-0.8,1.6C833.5,786.6,833.8,786.9,834.1,787z"/>
			<path class="st10" d="M815.2,776l11.7,6.8c1.3,0.6,2.8,0.6,4.1,0l9.9-5.7c0.7-0.2,1-0.9,0.8-1.6c-0.1-0.4-0.4-0.7-0.8-0.8
				l-11.7-6.7c-1.3-0.7-2.8-0.7-4.1,0l-9.9,5.7c-0.6,0.3-1,1-0.7,1.6C814.6,775.7,814.8,775.9,815.2,776z"/>
			<path class="st10" d="M796.2,765.1l11.8,6.8c1.3,0.7,2.8,0.7,4.1,0l9.9-5.7c0.7-0.2,1-0.9,0.8-1.6c-0.1-0.4-0.4-0.6-0.8-0.8
				l-11.8-6.8c-1.3-0.7-2.8-0.7-4.1,0l-9.9,5.7c-0.7,0.2-1,0.9-0.8,1.6C795.5,764.7,795.8,765,796.2,765.1z"/>
			<path class="st10" d="M777.3,754.2l11.7,6.8c1.3,0.7,2.8,0.7,4.1,0l9.9-5.7c0.7-0.2,1-0.9,0.8-1.6c-0.1-0.4-0.4-0.7-0.8-0.8
				l-11.7-6.8c-1.3-0.7-2.8-0.7-4.1,0l-9.9,5.7c-0.7,0.2-1,1-0.8,1.6C776.6,753.8,776.9,754,777.3,754.2z"/>
			<path class="st10" d="M758.3,743.2l11.7,6.8c1.3,0.6,2.8,0.6,4.1,0l9.9-5.7c0.7-0.2,1-0.9,0.8-1.6c-0.1-0.4-0.4-0.7-0.8-0.8
				l-11.7-6.8c-1.3-0.7-2.8-0.7-4.1,0l-9.9,5.7c-0.7,0.2-1,0.9-0.8,1.6C757.6,742.8,757.9,743.1,758.3,743.2z"/>
			<path class="st10" d="M671.6,712.9l87.8,50.7c1.3,0.7,2.8,0.7,4.1,0l9.9-5.7c0.7-0.2,1-0.9,0.8-1.6c-0.1-0.4-0.4-0.7-0.8-0.8
				l-87.8-50.7c-1.3-0.7-2.8-0.7-4.1,0l-9.9,5.7c-0.7,0.2-1.1,0.9-0.9,1.5C670.8,712.5,671.1,712.8,671.6,712.9z"/>
			<path class="st10" d="M739.4,732.3l11.7,6.8c1.3,0.7,2.8,0.7,4.1,0l9.9-5.7c0.7-0.2,1-0.9,0.8-1.6c-0.1-0.4-0.4-0.6-0.8-0.8
				l-11.7-6.8c-1.3-0.7-2.8-0.7-4.1,0l-9.9,5.7c-0.7,0.2-1,0.9-0.8,1.6C738.7,731.9,739,732.1,739.4,732.3z"/>
			<path class="st10" d="M720.4,721.3l11.7,6.8c1.3,0.7,2.8,0.7,4.1,0l9.9-5.7c0.7-0.2,1-0.9,0.8-1.6c-0.1-0.4-0.4-0.7-0.8-0.8
				l-11.7-6.8c-1.3-0.7-2.8-0.7-4.1,0l-9.9,5.7c-0.7,0.2-1,0.9-0.8,1.6C719.8,720.9,720,721.2,720.4,721.3z"/>
			<path class="st10" d="M701.5,710.4l11.7,6.8c1.3,0.6,2.8,0.6,4.1,0l9.9-5.7c0.7-0.2,1-0.9,0.8-1.6c-0.1-0.4-0.4-0.7-0.8-0.8
				l-11.7-6.8c-1.3-0.6-2.8-0.6-4.1,0l-9.9,5.7c-0.7,0.2-1,0.9-0.8,1.6C700.8,710,701.1,710.3,701.5,710.4z"/>
			<path class="st10" d="M682.5,699.5l11.7,6.8c1.3,0.7,2.8,0.7,4.1,0l9.9-5.7c0.7-0.2,1-0.9,0.8-1.6c-0.1-0.4-0.4-0.6-0.8-0.8
				l-11.7-6.8c-1.3-0.7-2.8-0.7-4.1,0l-9.9,5.7c-0.7,0.2-1,0.9-0.8,1.6C681.8,699,682.1,699.3,682.5,699.5z"/>
			<path class="st10" d="M663.5,688.5l11.7,6.8c1.3,0.7,2.8,0.7,4.1,0l9.9-5.7c0.7-0.2,1-0.9,0.8-1.6c-0.1-0.4-0.4-0.6-0.8-0.8
				l-11.7-6.8c-1.3-0.7-2.8-0.7-4.1,0l-9.9,5.7c-0.7,0.2-1,0.9-0.8,1.6C662.9,688.1,663.2,688.4,663.5,688.5z"/>
			<path class="st5" d="M971.3,792.5l-9.9,5.7c-1.3,0.7-2.8,0.7-4.1,0l-11.7-6.8c-0.6-0.2-0.9-0.8-0.8-1.4c0-0.1,0-0.3,0-0.4
				c0-0.1,0-0.3,0-0.4c-0.1-0.6,0.2-1.2,0.8-1.4l9.9-5.7c1.3-0.7,2.8-0.7,4.1,0l11.7,6.8c0.6,0.2,0.9,0.8,0.8,1.4c0,0.1,0,0.3,0,0.4
				c0,0.1,0,0.3,0,0.4C972.2,791.7,971.9,792.3,971.3,792.5z"/>
			<path class="st5" d="M953.1,780.2c0-0.1,0-0.3,0-0.4c0-0.1,0-0.3,0-0.4c0.1-0.6-0.2-1.2-0.8-1.4l-11.7-6.8
				c-1.3-0.6-2.8-0.6-4.1,0l-9.9,5.7c-0.6,0.2-0.9,0.8-0.8,1.4c0,0.1,0,0.3,0,0.4c0,0.1,0,0.3,0,0.4c-0.1,0.6,0.2,1.2,0.8,1.4
				l11.7,6.8c1.3,0.7,2.8,0.7,4.1,0l9.9-5.7C952.9,781.3,953.2,780.8,953.1,780.2z"/>
			<path class="st5" d="M991,802.1c0-0.1,0-0.3,0-0.4c0-0.1,0-0.3,0-0.4c0.1-0.6-0.2-1.2-0.8-1.4l-11.7-6.8c-1.3-0.7-2.8-0.7-4.1,0
				l-9.9,5.7c-0.6,0.2-0.9,0.8-0.8,1.4c0,0.1,0,0.3,0,0.4c0,0.1,0,0.3,0,0.4c-0.1,0.6,0.2,1.2,0.8,1.4l11.7,6.8
				c1.3,0.7,2.8,0.7,4.1,0l9.9-5.7C990.8,803.2,991.1,802.7,991,802.1z"/>
			<path class="st5" d="M912.6,832.3l11.7,6.8c1.3,0.7,2.8,0.7,4.1,0l9.9-5.7c0.6-0.2,0.9-0.8,0.8-1.4c0-0.1,0-0.3,0-0.4
				c0-0.1,0-0.3,0-0.4c0.1-0.6-0.2-1.2-0.8-1.4l-11.7-6.8c-1.3-0.7-2.8-0.7-4.1,0l-9.9,5.7c-0.6,0.2-0.9,0.8-0.8,1.4
				c0,0.1,0,0.3,0,0.4c0,0.1,0,0.3,0,0.4C911.7,831.5,912.1,832.1,912.6,832.3z"/>
			<path class="st5" d="M856.6,818.7c0,0.1,0,0.3,0,0.4c-0.1,0.6,0.2,1.2,0.8,1.4l11.7,6.8c1.3,0.7,2.8,0.7,4.1,0l9.9-5.7
				c0.6-0.2,0.9-0.8,0.8-1.4c0-0.1,0-0.3,0-0.4c0-0.1,0-0.3,0-0.4c0.1-0.6-0.2-1.2-0.8-1.4l-11.7-6.8c-1.3-0.6-2.8-0.6-4.1,0
				l-9.9,5.7c-0.5,0.2-0.9,0.8-0.8,1.4C856.6,818.4,856.6,818.5,856.6,818.7z"/>
			<path class="st5" d="M922.2,800l-16.6-9.4c-1.1-0.5-2.3-0.5-3.4,0l-9.7,5.6c-0.7,0.3-1.1,1-1,1.7c0,0.1,0,0.3,0,0.4
				c0,0.1,0,0.3,0,0.4c-0.1,0.7,0.3,1.4,1,1.7l49.3,28.5c1.6,0.8,3.5,0.8,5.1,0l25.9-15c0.7-0.3,1.1-1,1-1.7c0-0.1,0-0.3,0-0.4
				c0-0.1,0-0.3,0-0.4c0.1-0.7-0.3-1.4-1-1.7l-29.8-17.2c-1.6-0.8-3.5-0.8-5.1,0l-13,7.5C924.2,800.4,923.1,800.4,922.2,800z"/>
			<path class="st5" d="M892.9,819.2c0,0.1,0,0.3,0,0.4c0,0.1,0,0.3,0,0.4c-0.1,0.6,0.2,1.2,0.8,1.4l11.7,6.8c1.3,0.7,2.8,0.7,4.1,0
				l9.9-5.7c0.6-0.2,0.9-0.8,0.8-1.4c0-0.1,0-0.3,0-0.4c0-0.1,0-0.3,0-0.4c0.1-0.6-0.2-1.2-0.8-1.4l-11.7-6.8
				c-1.3-0.7-2.8-0.7-4.1,0l-9.9,5.7C893.1,818,892.8,818.6,892.9,819.2z"/>
			<path class="st5" d="M900.5,808l-11.7-6.8c-1.3-0.7-2.8-0.7-4.1,0l-9.9,5.7c-0.5,0.2-0.9,0.8-0.8,1.4c0,0.1,0,0.3,0,0.4
				c0,0.1,0,0.3,0,0.4c-0.1,0.6,0.2,1.2,0.8,1.4l11.7,6.8c1.3,0.6,2.8,0.6,4.1,0l9.9-5.7c0.5-0.2,0.9-0.8,0.8-1.4c0-0.1,0-0.3,0-0.4
				c0-0.1,0-0.3,0-0.4C901.3,808.8,901,808.2,900.5,808z"/>
			<path class="st5" d="M875.6,829.2c0,0.1,0,0.3,0,0.4c0,0.1,0,0.3,0,0.4c-0.1,0.6,0.2,1.2,0.8,1.4l11.7,6.8c1.3,0.7,2.8,0.7,4.1,0
				l9.9-5.7c0.6-0.2,0.9-0.8,0.8-1.4c0-0.1,0-0.3,0-0.4c0-0.1,0-0.3,0-0.4c0.1-0.6-0.2-1.2-0.8-1.4l-11.7-6.8
				c-1.3-0.7-2.8-0.7-4.1,0l-9.9,5.7C875.8,828,875.5,828.6,875.6,829.2z"/>
			<path class="st5" d="M894.5,840.2c0,0.1,0,0.3,0,0.4c0,0.1,0,0.3,0,0.4c-0.1,0.6,0.2,1.2,0.8,1.4l11.7,6.8c1.3,0.6,2.8,0.6,4.1,0
				l9.9-5.7c0.5-0.2,0.9-0.8,0.8-1.4c0-0.1,0-0.3,0-0.4c0-0.1,0-0.3,0-0.4c0.1-0.6-0.2-1.2-0.8-1.4l-11.7-6.8
				c-1.3-0.7-2.8-0.7-4.1,0l-9.9,5.7C894.7,839,894.4,839.6,894.5,840.2z"/>
			<path class="st5" d="M935.1,788l-11.7-6.8c-1.3-0.7-2.8-0.7-4.1,0l-9.9,5.7c-0.6,0.2-0.9,0.8-0.8,1.4c0,0.1,0,0.3,0,0.4
				c0,0.1,0,0.3,0,0.4c-0.1,0.6,0.2,1.2,0.8,1.4l11.7,6.8c1.3,0.7,2.8,0.7,4.1,0l9.9-5.7c0.5-0.2,0.9-0.8,0.8-1.4c0-0.1,0-0.3,0-0.4
				c0-0.1,0-0.3,0-0.4C935.9,788.8,935.6,788.2,935.1,788z"/>
			<path class="st10" d="M912.6,830.6l11.7,6.8c1.3,0.7,2.8,0.7,4.1,0l9.9-5.7c0.7-0.2,1-0.9,0.8-1.6c-0.1-0.4-0.4-0.7-0.8-0.8
				l-11.7-6.8c-1.3-0.7-2.8-0.7-4.1,0l-9.9,5.7c-0.7,0.2-1,0.9-0.8,1.6C912,830.2,912.3,830.5,912.6,830.6z"/>
			<path class="st10" d="M893.7,819.7l11.7,6.8c1.3,0.7,2.8,0.7,4.1,0l9.9-5.7c0.7-0.2,1-0.9,0.8-1.6c-0.1-0.4-0.4-0.6-0.8-0.8
				l-11.7-6.8c-1.3-0.7-2.8-0.7-4.1,0l-9.9,5.7c-0.7,0.2-1,0.9-0.8,1.6C893,819.3,893.3,819.6,893.7,819.7z"/>
			<path class="st10" d="M874.7,808.7l11.7,6.8c1.3,0.7,2.8,0.7,4.1,0l9.9-5.7c0.7-0.2,1-0.9,0.8-1.6c-0.1-0.4-0.4-0.6-0.8-0.8
				l-11.7-6.8c-1.3-0.7-2.8-0.7-4.1,0l-9.9,5.7c-0.7,0.2-1,0.9-0.8,1.6C874.1,808.3,874.4,808.6,874.7,808.7z"/>
			<path class="st10" d="M895.3,840.6l11.7,6.8c1.3,0.7,2.8,0.7,4.1,0l9.9-5.7c0.7-0.2,1-0.9,0.8-1.6c-0.1-0.4-0.4-0.6-0.8-0.8
				l-11.7-6.8c-1.3-0.7-2.8-0.7-4.1,0l-9.9,5.7c-0.7,0.2-1,1-0.7,1.6C894.6,840.2,894.9,840.5,895.3,840.6z"/>
			<path class="st10" d="M876.3,829.7l11.7,6.8c1.3,0.7,2.8,0.7,4.1,0l9.9-5.7c0.7-0.2,1-0.9,0.8-1.6c-0.1-0.4-0.4-0.7-0.8-0.8
				l-11.7-6.8c-1.3-0.7-2.8-0.7-4.1,0l-9.9,5.7c-0.7,0.2-1,0.9-0.8,1.6C875.7,829.3,876,829.6,876.3,829.7z"/>
			<path class="st10" d="M857.4,818.7l11.7,6.8c1.3,0.6,2.8,0.6,4.1,0l9.9-5.7c0.7-0.2,1-0.9,0.8-1.6c-0.1-0.4-0.4-0.7-0.8-0.8
				l-11.7-6.8c-1.3-0.7-2.8-0.7-4.1,0l-9.9,5.7c-0.7,0.2-1,0.9-0.8,1.6C856.7,818.3,857,818.6,857.4,818.7z"/>
			<path class="st10" d="M964.5,800.7l11.7,6.8c1.3,0.7,2.8,0.7,4.1,0l9.9-5.7c0.7-0.2,1-0.9,0.8-1.6c-0.1-0.4-0.4-0.6-0.8-0.8
				l-11.7-6.8c-1.3-0.7-2.8-0.7-4.1,0l-9.9,5.7c-0.7,0.2-1,0.9-0.8,1.6C963.9,800.2,964.1,800.5,964.5,800.7z"/>
			<path class="st10" d="M945.5,789.7l11.7,6.8c1.3,0.7,2.8,0.7,4.1,0l9.9-5.7c0.7-0.2,1-0.9,0.8-1.6c-0.1-0.4-0.4-0.6-0.8-0.8
				l-11.7-6.8c-1.3-0.7-2.8-0.7-4.1,0l-9.9,5.7c-0.7,0.2-1,0.9-0.8,1.6C944.9,789.3,945.2,789.6,945.5,789.7z"/>
			<path class="st10" d="M926.6,778.8l11.7,6.8c1.3,0.7,2.8,0.7,4.1,0l9.9-5.7c0.7-0.2,1-0.9,0.8-1.6c-0.1-0.4-0.4-0.7-0.8-0.8
				l-11.7-6.8c-1.3-0.6-2.8-0.6-4.1,0l-9.9,5.7c-0.7,0.2-1,0.9-0.8,1.6C925.9,778.4,926.2,778.7,926.6,778.8z"/>
			<path class="st10" d="M909.3,788.8l11.7,6.8c1.3,0.7,2.8,0.7,4.1,0l9.9-5.7c0.7-0.2,1-0.9,0.8-1.6c-0.1-0.4-0.4-0.7-0.8-0.8
				l-11.7-6.8c-1.3-0.7-2.8-0.7-4.1,0l-9.9,5.7c-0.7,0.2-1,0.9-0.8,1.6C908.6,788.3,908.9,788.6,909.3,788.8z"/>
			<path class="st10" d="M892.5,798.5l49.3,28.5c1.6,0.8,3.5,0.8,5.1,0l25.9-15c1.4-0.8,1.4-2.2,0-3l-29.8-17.2
				c-1.6-0.8-3.5-0.8-5.1,0l-13,7.5c-0.9,0.5-2,0.5-2.9,0l-16.6-9.3c-1.1-0.5-2.3-0.5-3.4,0l-9.7,5.6
				C891.1,796.4,891.1,797.7,892.5,798.5z"/>
			<path class="st4" d="M985.5,880.5c3.6-9.2,17.2-26.9,37.7-34.7c16.4-6.2,37.2-12.7,61.8,1.6c0.9,0.5,1.8,1.1,2.7,1.8
				c8.9,6.5,8.6,17.5-0.9,24.2c-17.5,12.2-38.7,23.7-38.7,23.7c-5.2,2.9-10.8,5.1-16.6,6.6c-14.1,3.6-26.7,2.3-37.3-3.9
				c-6.7-3.9-10-9-10-14.1C984.3,883.9,984.7,882.1,985.5,880.5z"/>
			<path class="st5" d="M1054.5,849.8l6.9-3.8c2.6-1.2,5.7-0.8,7.8,1.2c1.7,1.5,0.9,2.1-1.1,3.1l-7,3.3c-2,1-5.4,1.3-7.3,0
				S1052.5,850.8,1054.5,849.8z"/>
			<g>
				<defs>
					<path id="SVGID_00000036938668876807504200000008921526865015222691_" d="M1069.9,848.7c0,0-8.2,4.8-12.4,5.1
						c-1,0.1-2-0.1-2.9-0.5c-1-0.5-1.6-1.5-1.2-3.5l1.8-8.8c0,0,7.9-7,11.4-2.9S1071.1,846,1069.9,848.7z"/>
				</defs>
				<clipPath id="SVGID_00000018228514626396975630000003653825621165711253_">
					<use xlink:href="#SVGID_00000036938668876807504200000008921526865015222691_"  style="overflow:visible;"/>
				</clipPath>
				<g style="clip-path:url(#SVGID_00000018228514626396975630000003653825621165711253_);">
					<g>
						<path class="st10" d="M1059,844.2c2.1-1.3,4.7-1.4,6.8-0.2l-10,15.9C1050.9,856.2,1053.3,847.7,1059,844.2z"/>
						<path class="st5" d="M1056,852.1c1.1-3,3.1-5.5,5.8-7.2c1-0.6,2.2-0.9,3.3-0.9c0.5,0,1,0.2,1.4,0.4c1.4,0.9,2.5,2.3,2.9,3.9
							c1.7,6-5.3,16.2-12.4,12.5C1055,859.5,1054.4,856,1056,852.1z"/>
						<path class="st12" d="M1060.9,853.9c0.7-1.9,2-3.4,3.6-4.5c0.6-0.4,1.4-0.6,2.1-0.6c2,0.2,2.7,2.7,1.5,5.7
							c-0.7,1.9-2,3.4-3.6,4.5c-0.6,0.4-1.4,0.6-2.1,0.6C1060.5,859.4,1059.8,856.8,1060.9,853.9z"/>
					</g>
				</g>
			</g>
			<path class="st5" d="M992.9,895.2c10.6,6.2,23.2,7.5,37.3,3.9c5.8-1.5,11.4-3.7,16.6-6.6c0,0,21.2-11.5,38.7-23.7
				c5.3-3.7,7.7-8.7,7.3-13.6c2.9,6.1,0.9,13.3-6,18.2c-17.5,12.2-38.7,23.7-38.7,23.7c-5.2,2.9-10.8,5.1-16.6,6.6
				c-14.1,3.6-26.7,2.3-37.3-3.9c-6.3-3.6-9.5-8.3-10-13.1C985.8,889.8,988.6,892.8,992.9,895.2z"/>
			<path class="st3" d="M993.5,897.4c10.6,6.2,23.2,7.5,37.3,3.9c5.8-1.5,11.4-3.7,16.6-6.6c0,0,21.2-11.5,38.7-23.8
				c5.7-4,8-9.4,7.2-14.6c2.2,5.8,0,12.4-6.5,17c-17.5,12.2-38.7,23.7-38.7,23.7c-5.2,2.9-10.8,5.1-16.6,6.6
				c-14.1,3.6-26.7,2.3-37.3-3.9c-5.8-3.4-9-7.7-9.8-12.1C985.7,891.3,988.8,894.7,993.5,897.4z"/>
			<g>
				<polygon class="st13" points="1262.3,652.8 1262.4,873.5 1391.5,799 1391.4,578.3 				"/>
				<polygon class="st14" points="1265.7,832 1265.6,661.6 1390.4,589.5 1390.5,800.3 1297.1,854.2 				"/>
				<polygon class="st15" points="1267.7,833.6 1267.6,662.8 1392.4,590.7 1392.5,801.5 1299,855.5 				"/>
				<polygon class="st15" points="1269.7,835.1 1269.7,663.9 1394.4,591.9 1394.5,802.7 1300.9,856.7 				"/>
				<polygon class="st15" points="1271.8,836.5 1271.7,665.1 1396.5,593 1396.6,803.8 1302.8,858 				"/>
				<polygon class="st15" points="1273.8,838 1273.7,666.3 1398.5,594.2 1398.6,805 1304.7,859.2 				"/>
				<polygon class="st15" points="1275.8,839.5 1275.8,667.4 1400.6,595.4 1400.6,806.2 1306.7,860.4 				"/>
				<polygon class="st15" points="1308.3,861.5 1277.9,841 1277.8,668.6 1402.6,596.6 1402.7,807.3 1308.6,861.7 				"/>
				<polygon class="st15" points="1308.3,861.5 1279.9,842.5 1279.8,669.8 1404.6,597.7 1404.7,808.5 1310.5,862.9 				"/>
				<polygon class="st15" points="1308.3,861.5 1281.9,843.9 1281.8,671 1406.6,598.9 1406.7,809.7 1312.5,864.1 				"/>
				<polygon class="st15" points="1308.3,861.5 1283.9,845.3 1283.9,672.1 1408.7,600.1 1408.8,810.9 1314.5,865.3 				"/>
				<polygon class="st15" points="1308.3,861.5 1286,846.7 1285.9,673.3 1410.7,601.3 1410.8,812 1316.4,866.5 				"/>
				<polygon class="st15" points="1308.3,861.5 1288,848.1 1287.9,674.5 1412.7,602.4 1412.8,813.2 1318.4,867.7 				"/>
				<polygon class="st14" points="1308.3,861.5 1290,849.5 1290,675.7 1414.8,603.6 1414.8,814.4 1320.4,868.9 				"/>
				<polygon class="st14" points="1308.3,861.5 1292.1,850.9 1292,676.8 1416.8,604.8 1416.9,815.5 1322.3,870.1 				"/>
				<polygon class="st13" points="1426.7,598.8 1426.8,819.5 1295.9,895.1 1295.8,674.3 				"/>
				<path class="st16" d="M1258.7,652.8l0.1,220.8l37.1,21.6l-0.1-220.8L1258.7,652.8z M1266.9,825.1c0-5.3,3.8-7.4,8.3-4.8
					s8.3,9.1,8.3,14.3s-3.7,7.4-8.3,4.8S1266.9,830.3,1266.9,825.1z"/>
				<polygon class="st15" points="1264.7,797.1 1289.2,811.2 1289.2,688.5 1264.7,674.3 				"/>
				<path class="st17" d="M1275.2,839.4c4.6,2.7,8.3,0.5,8.3-4.8s-3.7-11.7-8.3-14.3s-8.3-0.5-8.3,4.8S1270.6,836.8,1275.2,839.4z"
					/>
				<g>
					<path class="st18" d="M1269.1,821.2l1.3-0.8c-1.3,0.8-2.1,2.4-2.1,4.7c0.3,5.1,3,9.7,7.2,12.5c2,1.2,3.8,1.3,5.1,0.5l-1.3,0.8
						c-1.3,0.8-3.1,0.7-5.1-0.5c-4.3-2.8-7-7.4-7.2-12.5C1267,823.5,1267.8,821.9,1269.1,821.2z"/>
					<path class="st15" d="M1269.2,818.3c1.6-0.9,3.9-0.8,6.4,0.6c4.9,2.8,8.9,9.8,8.9,15.4c0,2.8-1,4.8-2.6,5.7l-1.3,0.8
						c1.6-0.9,2.6-2.9,2.6-5.7c0-5.7-3.9-12.6-8.9-15.4c-2.5-1.4-4.7-1.6-6.4-0.6L1269.2,818.3z"/>
					<path class="st15" d="M1265.2,824.9c0,5.7,4,12.5,8.9,15.4s8.9,0.6,8.9-5.1s-3.9-12.6-8.9-15.4S1265.3,819.2,1265.2,824.9z
						 M1266.9,825.9c0-4.6,3.3-6.5,7.3-4.2c4.3,2.8,6.9,7.4,7.2,12.5c0,4.6-3.3,6.4-7.2,4.1C1269.9,835.6,1267.2,830.9,1266.9,825.9
						L1266.9,825.9z"/>
				</g>
				<polygon class="st19" points="1389.6,577.2 1391.4,578.3 1262.3,652.8 1295.8,672.3 1424.9,597.8 1426.7,598.8 1295.8,674.3 
					1258.7,652.8 				"/>
			</g>
			<g>
				<polygon class="st20" points="1306.7,678.8 1306.8,899.6 1435.8,825 1435.8,604.3 				"/>
				<polygon class="st14" points="1310.1,858 1310,687.6 1434.8,615.5 1434.9,826.3 1341.5,880.2 				"/>
				<polygon class="st15" points="1312.1,859.6 1312,688.8 1436.8,616.7 1436.9,827.5 1343.4,881.5 				"/>
				<polygon class="st15" points="1314.1,861.1 1314.1,689.9 1438.8,617.9 1438.9,828.7 1345.3,882.7 				"/>
				<polygon class="st15" points="1316.2,862.6 1316.1,691.1 1440.9,619.1 1441,829.8 1347.2,884 				"/>
				<polygon class="st15" points="1318.2,864 1318.1,692.3 1442.9,620.2 1443,831 1349.1,885.2 				"/>
				<polygon class="st15" points="1320.2,865.5 1320.2,693.5 1444.9,621.4 1445,832.2 1351.1,886.4 				"/>
				<polygon class="st15" points="1352.7,887.5 1322.2,867 1322.2,694.6 1447,622.6 1447.1,833.4 1353,887.7 				"/>
				<polygon class="st15" points="1352.7,887.5 1324.3,868.5 1324.2,695.8 1449,623.8 1449.1,834.5 1354.9,888.9 				"/>
				<polygon class="st15" points="1352.7,887.5 1326.3,869.9 1326.2,697 1451,624.9 1451.1,835.7 1356.9,890.1 				"/>
				<polygon class="st15" points="1352.7,887.5 1328.3,871.3 1328.3,698.2 1453.1,626.1 1453.2,836.9 1358.9,891.3 				"/>
				<polygon class="st15" points="1352.7,887.5 1330.4,872.7 1330.3,699.3 1455.1,627.3 1455.2,838 1360.8,892.5 				"/>
				<polygon class="st15" points="1352.7,887.5 1332.4,874.1 1332.3,700.5 1457.1,628.4 1457.2,839.2 1362.8,893.7 				"/>
				<polygon class="st14" points="1352.7,887.5 1334.4,875.5 1334.4,701.7 1459.2,629.6 1459.2,840.4 1364.8,895 				"/>
				<polygon class="st14" points="1352.7,887.5 1336.5,876.9 1336.4,702.8 1461.2,630.8 1461.3,841.6 1366.7,896.2 				"/>
				<polygon class="st20" points="1471.1,624.8 1471.2,845.5 1340.3,921.1 1340.2,700.4 				"/>
				<path class="st21" d="M1303.1,678.8l0.1,220.8l37.1,21.5l-0.1-220.8L1303.1,678.8z M1311.3,851.1c0-5.3,3.8-7.4,8.3-4.8
					s8.3,9.1,8.3,14.4s-3.7,7.4-8.3,4.7S1311.3,856.3,1311.3,851.1z"/>
				<polygon class="st15" points="1309.1,823.1 1333.6,837.3 1333.6,714.5 1309.1,700.4 				"/>
				<path class="st17" d="M1319.6,865.4c4.6,2.7,8.3,0.5,8.3-4.7s-3.7-11.7-8.3-14.4s-8.3-0.5-8.3,4.8S1315,862.8,1319.6,865.4z"/>
				<g>
					<path class="st18" d="M1313.4,847.2l1.3-0.8c-1.3,0.8-2.1,2.4-2.1,4.7c0.3,5.1,3,9.7,7.2,12.5c2,1.2,3.8,1.3,5.1,0.5l-1.3,0.8
						c-1.3,0.8-3.1,0.7-5.1-0.5c-4.3-2.8-6.9-7.4-7.2-12.5C1311.3,849.6,1312.2,848,1313.4,847.2z"/>
					<path class="st15" d="M1313.6,844.4c1.6-1,3.9-0.8,6.4,0.6c4.9,2.8,8.9,9.7,8.9,15.4c0,2.8-1,4.8-2.6,5.7l-1.3,0.8
						c1.6-0.9,2.6-2.9,2.6-5.7c0-5.7-4-12.6-8.9-15.4c-2.5-1.4-4.7-1.6-6.3-0.6L1313.6,844.4z"/>
					<path class="st15" d="M1309.7,850.9c0,5.7,4,12.5,8.9,15.4s8.9,0.6,8.9-5.1s-4-12.6-8.9-15.4S1309.7,845.2,1309.7,850.9z
						 M1311.3,851.9c0-4.6,3.3-6.5,7.3-4.2c4.3,2.8,6.9,7.4,7.2,12.5c0,4.6-3.3,6.4-7.2,4.1C1314.3,861.6,1311.6,856.9,1311.3,851.9
						L1311.3,851.9z"/>
				</g>
				<polygon class="st19" points="1434,603.2 1435.8,604.3 1306.7,678.8 1340.2,698.3 1469.3,623.8 1471.1,624.8 1340.2,700.4 
					1303.1,678.8 				"/>
			</g>
			<g>
				<polygon class="st7" points="1351.1,704 1351.2,924.8 1480.3,850.2 1480.2,629.5 				"/>
				<polygon class="st14" points="1354.5,883.2 1354.5,712.8 1479.2,640.8 1479.3,851.5 1385.9,905.4 				"/>
				<polygon class="st15" points="1356.6,884.8 1356.5,714 1481.3,641.9 1481.4,852.7 1387.9,906.7 				"/>
				<polygon class="st15" points="1358.6,886.3 1358.5,715.1 1483.3,643.1 1483.4,853.9 1389.8,907.9 				"/>
				<polygon class="st15" points="1360.6,887.8 1360.6,716.3 1485.3,644.3 1485.4,855 1391.7,909.2 				"/>
				<polygon class="st15" points="1362.7,889.2 1362.6,717.5 1487.4,645.4 1487.5,856.2 1393.6,910.4 				"/>
				<polygon class="st15" points="1364.7,890.7 1364.6,718.7 1489.4,646.6 1489.5,857.4 1395.5,911.6 				"/>
				<polygon class="st15" points="1397.2,912.7 1366.7,892.2 1366.6,719.8 1491.4,647.8 1491.5,858.6 1397.4,912.9 				"/>
				<polygon class="st15" points="1397.2,912.7 1368.8,893.7 1368.7,721 1493.5,649 1493.6,859.7 1399.4,914.1 				"/>
				<polygon class="st15" points="1397.2,912.7 1370.8,895.1 1370.7,722.2 1495.5,650.1 1495.6,860.9 1401.4,915.3 				"/>
				<polygon class="st15" points="1397.2,912.7 1372.8,896.5 1372.7,723.3 1497.5,651.3 1497.6,862.1 1403.3,916.5 				"/>
				<polygon class="st15" points="1397.2,912.7 1374.8,897.9 1374.8,724.5 1499.6,652.5 1499.7,863.2 1405.3,917.7 				"/>
				<polygon class="st15" points="1397.2,912.7 1376.9,899.3 1376.8,725.7 1501.6,653.7 1501.7,864.4 1407.2,918.9 				"/>
				<polygon class="st14" points="1397.2,912.7 1378.9,900.7 1378.8,726.9 1503.6,654.8 1503.7,865.6 1409.2,920.2 				"/>
				<polygon class="st14" points="1397.2,912.7 1380.9,902.1 1380.9,728 1505.7,656 1505.7,866.8 1411.2,921.3 				"/>
				<polygon class="st7" points="1515.5,650 1515.6,870.8 1384.8,946.3 1384.7,725.6 				"/>
				<path class="st22" d="M1347.6,704l0.1,220.8l37.1,21.6l-0.1-220.8L1347.6,704z M1355.8,876.3c0-5.3,3.8-7.4,8.3-4.8
					s8.3,9.1,8.3,14.4s-3.7,7.4-8.3,4.8S1355.8,881.5,1355.8,876.3L1355.8,876.3z"/>
				<polygon class="st15" points="1353.5,848.3 1378,862.5 1378,739.7 1353.5,725.6 				"/>
				<path class="st17" d="M1364.1,890.6c4.6,2.7,8.3,0.5,8.3-4.8s-3.7-11.7-8.3-14.4s-8.3-0.5-8.3,4.8S1359.5,888,1364.1,890.6z"/>
				<g>
					<path class="st18" d="M1357.9,872.4l1.3-0.8c-1.3,0.8-2.1,2.4-2.1,4.7c0.3,5.1,3,9.7,7.2,12.5c2,1.2,3.8,1.3,5.1,0.5l-1.3,0.8
						c-1.3,0.8-3.1,0.7-5.1-0.5c-4.3-2.8-7-7.4-7.2-12.5C1355.8,874.8,1356.6,873.2,1357.9,872.4z"/>
					<path class="st15" d="M1358.1,869.6c1.6-1,3.9-0.8,6.4,0.6c4.9,2.8,8.9,9.8,8.9,15.4c0,2.8-1,4.8-2.6,5.7l-1.3,0.8
						c1.6-0.9,2.6-2.9,2.6-5.7c0-5.7-4-12.6-8.9-15.4c-2.5-1.4-4.7-1.6-6.4-0.6L1358.1,869.6z"/>
					<path class="st15" d="M1354.1,876.1c0,5.7,4,12.5,8.9,15.4s8.9,0.6,9-5.1s-4-12.6-8.9-15.4S1354.1,870.4,1354.1,876.1z
						 M1355.8,877.1c0-4.6,3.3-6.5,7.3-4.1c4.3,2.8,6.9,7.4,7.2,12.5c0,4.6-3.3,6.4-7.2,4.1C1358.7,886.8,1356.1,882.1,1355.8,877.1
						L1355.8,877.1z"/>
				</g>
				<polygon class="st19" points="1478.4,628.4 1480.2,629.5 1351.1,704 1384.7,723.5 1513.8,649 1515.5,650 1384.7,725.6 
					1347.6,704 				"/>
			</g>
			<path class="st23" d="M1515.5,650l-1.8-1l-10.2,5.9l0,0l-2,1.2v-2.3l-2,1.2v-2.3l-2,1.2v-2.4l-2,1.2v-2.3l-2,1.2V649l-2,1.2v-2.3
				l-2,1.2v-2.3l-2,1.2v-2.3l-2,1.2v-2.3l-2,1.2v-2.3l-2,1.2V642l-1,0.6v-13l0,0l-1.8-1l-7.4,4.3v-7.9l-1.8-1l-10.2,5.9l0,0l-2,1.2
				v-2.3l-2,1.2v-2.3l-2,1.2v-2.5l-2,1.2v-2.3l-2,1.2v-2.3l-2,1.2v-2.3l-2,1.2v-2.3l-2,1.2v-2.3l-2,1.2v-2.3l-2,1.2v-2.3l-2,1.2
				v-2.3l-1,0.6v-13l0,0l-1.8-1l-7.3,4.2v-8.7l-1.8-1l-10.2,5.9l0,0l-2,1.2v-2.3l-2,1.2v-2.3l-2,1.2v-2.3l-2,1.2V599l-2,1.2v-2.3
				l-2,1.2v-2.3l-2,1.2v-2.3l-2,1.2v-2.3l-2,1.2v-2.3l-2,1.2V592l-2,1.2v-2.5l-1,0.6v-13l0,0l-1.8-1l-130.9,75.6l0.1,220.8
				l37.1,21.6l7.3-4.2v8.7l37.1,21.5l7.4-4.3v7.9l37.1,21.6l130.9-75.6L1515.5,650z M1344.1,605.5l-81.8,47.3l0,0L1344.1,605.5z"/>
			<polygon class="st3" points="809.4,609.3 869.1,575 916.9,602.4 862,639.3 			"/>
			<polygon class="st5" points="815.5,592.1 815.5,605.9 863.2,633.4 916.9,602.4 916.9,588.7 			"/>
			<polygon class="st4" points="815.5,592.1 869.2,560.9 916.9,588.7 863.2,619.7 			"/>
			<path class="st10" d="M869.2,560.9l47.7,27.8c0,0-28.6,19.3-61.3,23.7L807.2,581C807.2,581,847.5,574.8,869.2,560.9z"/>
			<polygon class="st24" points="1023.7,1046.7 1023.7,1050.5 1165.8,1132.6 1378.1,1009.5 1378.1,1006.9 			"/>
			<polygon class="st25" points="1023.7,1040.3 1023.7,1048 1165.8,1130 1378.1,1006.9 1378.1,996.7 			"/>
			<polygon class="st24" points="1023.7,1038.1 1023.7,1040.3 1165.8,1122.3 1378.1,999.2 1378.1,996.7 			"/>
			<polygon class="st26" points="1023.7,1038.1 1237.2,914.9 1378.1,996.7 1165.8,1120.1 			"/>
			<polygon class="st25" points="1236.8,945.4 1307.8,986.4 1281.2,1001.8 1210.2,960.8 			"/>
			<polygon class="st24" points="1023.7,1038.1 1023.7,1050.5 1026.6,1052.2 1026.6,1039.9 			"/>
			<polygon class="st27" points="1047.3,1040.3 1047.3,1044.1 1189.4,1126.2 1401.7,1003.1 1401.7,1000.6 			"/>
			<polygon class="st25" points="1047.3,1033.9 1047.3,1041.6 1189.4,1123.6 1401.7,1000.6 1401.7,990.3 			"/>
			<polygon class="st27" points="1047.3,1031.7 1047.3,1033.9 1189.4,1115.9 1401.7,992.9 1401.7,990.3 			"/>
			<polygon class="st28" points="1047.3,1031.7 1260.8,908.5 1401.7,990.3 1189.4,1113.8 			"/>
			<polygon class="st25" points="1260.4,939 1331.4,980 1304.8,995.4 1233.8,954.4 			"/>
			<polygon class="st27" points="1047.3,1031.7 1047.3,1044.1 1050.3,1045.8 1050.3,1033.5 			"/>
			<polygon class="st29" points="1033,1011.8 1033,1015.6 1175,1097.7 1387.4,974.6 1387.4,972 			"/>
			<polygon class="st25" points="1033,1005.4 1033,1013.1 1175,1095.1 1387.4,972 1387.4,961.8 			"/>
			<polygon class="st29" points="1033,1003.2 1033,1005.4 1175,1087.4 1387.4,964.4 1387.4,961.8 			"/>
			<polygon class="st30" points="1033,1003.2 1246.4,880 1387.4,961.8 1175,1085.2 			"/>
			<polygon class="st25" points="1246.1,910.5 1317.1,951.5 1290.4,966.9 1219.4,925.9 			"/>
			<polygon class="st29" points="1033,1003.2 1033,1015.6 1035.9,1017.3 1035.9,1005 			"/>
			<polygon class="st31" points="1381,978.3 1387.4,974.6 1387.4,972 1387.4,964.4 1387.4,961.8 1246.4,880 1033,1003.2 
				1033,1005.4 1033,1011.8 1033,1013.1 1033,1015.6 1035.9,1017.3 1035.9,1017.3 1047.8,1024.2 1023.7,1038.1 1023.7,1040.3 
				1023.7,1046.7 1023.7,1048 1023.7,1050.5 1026.6,1052.2 1026.6,1052.2 1165.8,1132.6 1183.1,1122.5 1189.4,1126.2 1401.7,1003.1 
				1401.7,1000.6 1401.7,992.9 1401.7,990.3 			"/>
			<path class="st32" d="M1365.5,978.2l-180.4,104.1c-2.3,1.2-5,1.2-7.3,0l-129.2-74.6c-2-1.2-2-3,0-4.2L1229,899.4
				c2.3-1.2,5-1.2,7.3,0l129.2,74.6C1367.5,975.2,1367.5,977,1365.5,978.2z"/>
			<path class="st33" d="M1362,972.4v-8.9l-126.8-64.3c-2.6-1.3-5.6-1.3-8.2,0l-170.5,91v8.8c0.1,1,0.7,1.9,1.7,2.4l126.8,73.2
				L1362,972.4z"/>
			<path class="st34" d="M1056.5,999v-8.9l30.7-16.4h97.8v100.8l-126.8-73.2C1057.3,1001,1056.6,1000,1056.5,999z"/>
			<path class="st35" d="M1056.4,989.1c-2.3-1.3-2.3-3.4,0-4.7l5.4-3.1l130.9,75.6l-9.5,5.5L1056.4,989.1z"/>
			<path class="st33" d="M1362,959v-8.9l-126.8-64.3c-2.6-1.3-5.6-1.3-8.2,0l-170.5,91v8.9c0.1,1,0.7,1.9,1.7,2.4l126.8,73.1
				L1362,959z"/>
			<path class="st34" d="M1056.5,985.7v-8.9l30.7-16.4h97.8v100.8l-126.8-73.2C1057.3,987.7,1056.6,986.8,1056.5,985.7z"/>
			<path class="st36" d="M1362,950.2L1235.2,877c-2.6-1.3-5.6-1.3-8.2,0l-168.8,97.5c-2.3,1.3-2.3,3.4,0,4.7l126.8,73.2L1362,950.2z
				"/>
			<path class="st35" d="M1346,950.1c-2.4-1.2-5.3-1.2-7.7,0c-2.1,1.2-2.1,3.2,0,4.5c2.4,1.2,5.3,1.2,7.7,0
				C1348.1,953.3,1348.1,951.3,1346,950.1z"/>
			<path class="st35" d="M1326.7,961.2c-2.4-1.2-5.3-1.2-7.7,0c-2.1,1.2-2.1,3.2,0,4.5c2.4,1.2,5.3,1.2,7.7,0
				C1328.9,964.5,1328.9,962.5,1326.7,961.2z"/>
			<path class="st35" d="M1307.5,972.3c-2.4-1.2-5.3-1.2-7.7,0c-2.1,1.2-2.1,3.2,0,4.5c2.4,1.2,5.3,1.2,7.7,0
				C1309.6,975.6,1309.6,973.6,1307.5,972.3z"/>
			<path class="st35" d="M1288.2,983.5c-2.4-1.2-5.3-1.2-7.7,0c-2.1,1.2-2.1,3.2,0,4.5c2.4,1.2,5.3,1.2,7.7,0
				C1290.4,986.7,1290.4,984.7,1288.2,983.5z"/>
			<path class="st35" d="M1269,994.6c-2.4-1.2-5.3-1.2-7.7,0c-2.1,1.2-2.1,3.2,0,4.5c2.4,1.2,5.3,1.2,7.7,0
				C1271.1,997.8,1271.1,995.8,1269,994.6z"/>
			<path class="st35" d="M1249.8,1005.7c-2.4-1.2-5.3-1.2-7.7,0c-2.1,1.2-2.1,3.2,0,4.4c2.4,1.2,5.3,1.2,7.7,0
				C1251.9,1008.9,1251.9,1006.9,1249.8,1005.7z"/>
			<path class="st35" d="M1230.5,1016.8c-2.4-1.2-5.3-1.2-7.7,0c-2.1,1.2-2.1,3.2,0,4.4c2.4,1.2,5.3,1.2,7.7,0
				C1232.6,1020,1232.6,1018,1230.5,1016.8z"/>
			<path class="st35" d="M1211.3,1027.9c-2.4-1.2-5.3-1.2-7.7,0c-2.1,1.2-2.1,3.2,0,4.4c2.4,1.2,5.3,1.2,7.7,0
				C1213.4,1031.1,1213.4,1029.1,1211.3,1027.9z"/>
			<path class="st35" d="M1192,1039c-2.4-1.2-5.3-1.2-7.7,0c-2.1,1.2-2.1,3.2,0,4.4c2.4,1.2,5.3,1.2,7.7,0
				C1194.2,1042.2,1194.2,1040.2,1192,1039z"/>
			<polygon class="st35" points="1363.8,958 1183.2,1062.3 1183.2,1066.7 1363.8,962.5 			"/>
			<path class="st37" d="M1056.3,993.5c-1-0.6-1.6-1.7-1.6-2.8v-3.9c0.1,1,0.8,1.9,1.7,2.4l126.8,73.2v4.4L1056.3,993.5z"/>
			<polygon class="st35" points="1362,959 1362,957 1363.8,958 			"/>
			<path class="st38" d="M1328.6,943.8l-93.5-54c-2.1-1-4.5-1-6.6,0l-8.8,5.1c-1.8,1-1.8,2.8,0,3.8l93.5,54c2.1,1,4.5,1,6.6,0
				l8.8-5.1C1330.4,946.5,1330.4,944.8,1328.6,943.8z"/>
			<line class="st38" x1="1324.1" y1="950.1" x2="1224.1" y2="892.4"/>
			<path class="st38" d="M1305.5,960.9l-124.4,71.8c-2.1,1-4.5,1-6.6,0l-93.4-54c-1.8-1-1.8-2.8,0-3.8l124.3-71.8c2.1-1,4.5-1,6.6,0
				l93.5,54C1307.3,958.2,1307.3,959.9,1305.5,960.9z"/>
			<line class="st38" x1="1301.1" y1="963.5" x2="1201" y2="905.7"/>
			<line class="st38" x1="1293.3" y1="967.9" x2="1193.3" y2="910.1"/>
			<line class="st38" x1="1285.6" y1="972.4" x2="1185.6" y2="914.6"/>
			<line class="st38" x1="1277.9" y1="976.8" x2="1177.8" y2="919"/>
			<line class="st38" x1="1270.2" y1="981.2" x2="1170.1" y2="923.5"/>
			<line class="st38" x1="1262.5" y1="985.7" x2="1162.4" y2="927.9"/>
			<line class="st38" x1="1254.8" y1="990.1" x2="1154.7" y2="932.3"/>
			<line class="st38" x1="1247.1" y1="994.6" x2="1147" y2="936.8"/>
			<line class="st38" x1="1239.4" y1="999" x2="1139.3" y2="941.2"/>
			<line class="st38" x1="1231.7" y1="1003.5" x2="1131.6" y2="945.7"/>
			<line class="st38" x1="1223.9" y1="1007.9" x2="1123.9" y2="950.1"/>
			<line class="st38" x1="1208.5" y1="1016.8" x2="1108.4" y2="959"/>
			<line class="st38" x1="1200.8" y1="1021.2" x2="1100.7" y2="963.5"/>
			<line class="st38" x1="1193.1" y1="1025.7" x2="1093" y2="967.9"/>
			<line class="st38" x1="1185.4" y1="1030.1" x2="1085.3" y2="972.3"/>
			<line class="st38" x1="1216.2" y1="1012.3" x2="1116.2" y2="954.6"/>
			<path class="st39" d="M1204.4,1065.7c-1.3,0.6-2.8,0.6-4.1,0l6.2-3.6C1206.3,1063.6,1205.6,1064.9,1204.4,1065.7z"/>
			<path class="st3" d="M1204.4,1065.7c1.2-0.8,1.9-2.1,2.1-3.5c0.1-0.6,0.2-1.3,0.2-1.9c0-2.2-0.5-4.3-1.3-6.3
				c-0.5-1.2-1-2.4-1.7-3.5l3.3-1.9c0.6,1.1,1.2,2.3,1.7,3.5c1.1,2.5,1.6,5.2,1.7,7.9c0,0.1,0,0.2,0,0.4c0,4.1-1.5,7.2-4.1,8.7
				c-1.2,0.7-2.5,1-3.8,1c-2.1-0.1-4.1-0.7-5.8-1.8l-0.3-0.2l3.9-2.3C1201.6,1066.3,1203.1,1066.3,1204.4,1065.7z"/>
			<path class="st3" d="M1188.9,1038.9c0.4-0.2,0.9-0.4,1.4-0.6c2.4-0.8,5.3-0.3,8.2,1.4c1.3,0.8,2.5,1.7,3.6,2.7
				c1.9,1.8,3.5,3.8,4.8,6.1l-3.3,1.9c-1.3-2.3-3-4.3-5-6c-0.6-0.5-1.3-1-2-1.4c-1-0.6-2-1-3.1-1.2c-1.9-0.4-3.8,0.7-4.4,2.5
				c-1.3,0.1-2.6,0-3.8-0.4C1185.8,1041.8,1187.1,1040,1188.9,1038.9z"/>
			<polygon class="st3" points="1203.7,1050.4 1207,1048.5 1207,1048.5 1203.7,1050.4 			"/>
			<path class="st39" d="M1223.6,1054.6c-1.3,0.6-2.8,0.6-4.1,0l6.2-3.6C1225.6,1052.4,1224.8,1053.7,1223.6,1054.6z"/>
			<path class="st3" d="M1223.6,1054.6c1.2-0.8,1.9-2.1,2.1-3.5c0.1-0.6,0.2-1.3,0.2-1.9c0-2.2-0.5-4.3-1.3-6.3
				c-0.5-1.2-1-2.4-1.7-3.5l3.3-1.9c0.6,1.1,1.2,2.3,1.7,3.5c1.1,2.5,1.6,5.2,1.7,7.9c0,0.1,0,0.2,0,0.4c0,4.1-1.5,7.2-4.2,8.7
				c-1.2,0.7-2.5,1-3.8,1c-2.1-0.1-4.1-0.7-5.8-1.8l-0.3-0.2l3.9-2.3C1220.8,1055.2,1222.3,1055.2,1223.6,1054.6z"/>
			<path class="st3" d="M1208.2,1027.8c0.4-0.2,0.9-0.4,1.4-0.6c2.4-0.8,5.3-0.3,8.2,1.4c1.3,0.8,2.5,1.7,3.6,2.7
				c1.9,1.8,3.5,3.8,4.8,6.1l-3.3,1.9c-1.3-2.3-3-4.3-5-6c-0.6-0.5-1.3-1-2-1.4c-1-0.6-2-1-3.1-1.2c-1.9-0.4-3.8,0.7-4.4,2.5
				c-1.3,0.1-2.6,0-3.8-0.4C1205.1,1030.7,1206.4,1028.9,1208.2,1027.8z"/>
			<polygon class="st3" points="1222.9,1039.3 1226.2,1037.4 1226.2,1037.4 1222.9,1039.3 			"/>
			<path class="st39" d="M1242.8,1043.4c-1.3,0.6-2.8,0.6-4.1,0l6.2-3.6C1244.8,1041.3,1244,1042.6,1242.8,1043.4z"/>
			<path class="st3" d="M1242.8,1043.5c1.2-0.8,1.9-2.1,2.1-3.5c0.1-0.6,0.2-1.3,0.2-1.9c0-2.2-0.5-4.3-1.3-6.3
				c-0.5-1.2-1-2.4-1.7-3.5l3.3-1.9c0.6,1.1,1.2,2.3,1.7,3.5c1,2.5,1.6,5.2,1.7,7.9c0,0.1,0,0.2,0,0.4c0,4.1-1.5,7.2-4.1,8.7
				c-1.2,0.7-2.5,1-3.8,1c-2.1-0.1-4.1-0.7-5.8-1.8l-0.3-0.2l3.9-2.3C1240.1,1044.1,1241.6,1044.1,1242.8,1043.5z"/>
			<path class="st3" d="M1227.4,1016.7c0.4-0.2,0.9-0.4,1.4-0.6c2.4-0.8,5.3-0.3,8.2,1.4c1.3,0.8,2.5,1.7,3.6,2.7
				c1.9,1.8,3.5,3.9,4.8,6.1l-3.3,1.9c-1.3-2.3-3-4.3-5-6c-0.6-0.5-1.3-1-2-1.4c-1-0.6-2-1-3.1-1.2c-0.9-0.2-1.9,0-2.7,0.4
				c-0.8,0.5-1.4,1.2-1.7,2.1c-1.3,0.1-2.6,0-3.8-0.4C1224.3,1019.6,1225.6,1017.8,1227.4,1016.7z"/>
			<polygon class="st3" points="1242.1,1028.2 1245.4,1026.3 1245.5,1026.3 1242.1,1028.2 			"/>
			<path class="st39" d="M1262.1,1032.3c-1.3,0.6-2.8,0.6-4.1,0l6.2-3.6C1264,1030.2,1263.3,1031.5,1262.1,1032.3z"/>
			<path class="st3" d="M1262.1,1032.4c1.2-0.8,1.9-2.1,2.1-3.5c0.1-0.6,0.2-1.3,0.2-1.9c0-2.2-0.5-4.3-1.3-6.3
				c-0.5-1.2-1-2.4-1.7-3.5l3.3-1.9c0.6,1.1,1.2,2.3,1.7,3.5c1.1,2.5,1.6,5.2,1.7,7.9c0,0.1,0,0.2,0,0.4c0,4.1-1.5,7.2-4.1,8.7
				c-1.2,0.7-2.5,1-3.8,1c-2.1-0.1-4.1-0.7-5.8-1.8l-0.3-0.2l3.9-2.3C1259.3,1033,1260.8,1033,1262.1,1032.4z"/>
			<path class="st3" d="M1246.7,1005.6c0.4-0.2,0.9-0.4,1.4-0.6c2.4-0.8,5.3-0.3,8.2,1.4c1.3,0.8,2.5,1.7,3.6,2.7
				c1.9,1.8,3.5,3.9,4.8,6.1l-3.3,1.9c-1.3-2.3-3-4.3-5-6c-0.6-0.5-1.3-1-2-1.4c-1-0.6-2-1-3.1-1.2c-0.9-0.2-1.9,0-2.7,0.4
				c-0.8,0.5-1.4,1.2-1.7,2.1c-1.3,0.1-2.6,0-3.8-0.4C1243.6,1008.5,1244.9,1006.7,1246.7,1005.6z"/>
			<polygon class="st3" points="1261.4,1017 1264.7,1015.1 1264.7,1015.1 1261.4,1017 			"/>
			<path class="st39" d="M1281.3,1021.2c-1.3,0.6-2.8,0.6-4.1,0l6.2-3.6C1283.3,1019.1,1282.5,1020.3,1281.3,1021.2z"/>
			<path class="st3" d="M1281.3,1021.3c1.2-0.8,1.9-2.1,2.1-3.5c0.1-0.6,0.2-1.3,0.2-1.9c0-2.2-0.5-4.3-1.3-6.3
				c-0.5-1.2-1-2.4-1.7-3.5l3.3-1.9c0.6,1.1,1.2,2.3,1.7,3.5c1,2.5,1.6,5.2,1.7,7.9c0,0.1,0,0.2,0,0.4c0,4.1-1.5,7.2-4.2,8.7
				c-1.1,0.7-2.5,1-3.8,1c-2.1-0.1-4.1-0.7-5.8-1.8l-0.3-0.2l3.9-2.3C1278.5,1021.9,1280,1021.9,1281.3,1021.3z"/>
			<path class="st3" d="M1265.9,994.5c0.4-0.2,0.9-0.4,1.4-0.6c2.4-0.8,5.3-0.3,8.2,1.4c1.3,0.8,2.5,1.7,3.6,2.7
				c1.9,1.8,3.5,3.9,4.8,6.1l-3.3,1.9c-1.3-2.3-3-4.3-5-6c-0.6-0.5-1.3-1-2-1.5c-1-0.6-2-1-3.1-1.2c-1.9-0.4-3.8,0.7-4.4,2.5
				c-1.3,0.1-2.6,0-3.8-0.4C1262.8,997.4,1264.1,995.6,1265.9,994.5z"/>
			<polygon class="st3" points="1280.6,1005.9 1283.9,1004 1283.9,1004 1280.6,1005.9 			"/>
			<path class="st39" d="M1300.6,1010c-1.3,0.6-2.8,0.6-4.1,0l6.2-3.6C1302.5,1007.9,1301.8,1009.2,1300.6,1010z"/>
			<path class="st3" d="M1300.6,1010.2c1.2-0.8,1.9-2.1,2.1-3.5c0.1-0.6,0.2-1.3,0.2-1.9c0-2.2-0.5-4.3-1.3-6.3
				c-0.5-1.2-1-2.4-1.7-3.5l3.3-1.9c0.6,1.1,1.2,2.3,1.7,3.5c1.1,2.5,1.6,5.2,1.7,7.9c0,0.1,0,0.2,0,0.4c0,4.1-1.5,7.2-4.1,8.7
				c-1.2,0.7-2.5,1-3.8,1c-2.1-0.1-4.1-0.7-5.8-1.8l-0.3-0.2l3.9-2.3C1297.8,1010.8,1299.3,1010.8,1300.6,1010.2z"/>
			<path class="st3" d="M1285.2,983.4c0.4-0.3,0.9-0.5,1.4-0.6c2.4-0.8,5.3-0.3,8.2,1.4c1.3,0.8,2.5,1.7,3.6,2.7
				c1.9,1.8,3.5,3.9,4.8,6.1l-3.3,1.9c-1.3-2.3-3-4.3-5-6c-0.6-0.5-1.3-1-2.1-1.5c-1-0.6-2-1-3.1-1.2c-1.9-0.4-3.8,0.7-4.4,2.5
				c-1.3,0.1-2.6,0-3.8-0.4C1282,986.3,1283.3,984.5,1285.2,983.4z"/>
			<polygon class="st3" points="1299.8,994.8 1303.2,992.9 1303.2,992.9 1299.8,994.8 			"/>
			<path class="st39" d="M1319.8,998.9c-1.3,0.6-2.8,0.6-4.1,0l6.2-3.6C1321.8,996.8,1321,998.1,1319.8,998.9z"/>
			<path class="st3" d="M1319.8,999.1c1.2-0.8,1.9-2.1,2.1-3.5c0.1-0.6,0.2-1.3,0.2-1.9c0-2.2-0.5-4.3-1.3-6.3
				c-0.5-1.2-1-2.4-1.7-3.5l3.3-1.9c0.6,1.1,1.2,2.3,1.7,3.5c1.1,2.5,1.6,5.2,1.7,7.9c0,0.1,0,0.2,0,0.4c0,4.1-1.5,7.2-4.2,8.7
				c-1.2,0.7-2.5,1-3.8,1c-2.1-0.1-4.1-0.7-5.8-1.8l-0.3-0.2l3.9-2.3C1317,999.7,1318.5,999.7,1319.8,999.1z"/>
			<path class="st3" d="M1304.4,972.3c0.4-0.2,0.9-0.5,1.4-0.6c2.4-0.8,5.3-0.3,8.2,1.4c1.3,0.8,2.5,1.7,3.6,2.7
				c1.9,1.8,3.5,3.9,4.8,6.1l-3.3,1.9c-1.3-2.3-3-4.3-5-6c-0.6-0.5-1.3-1-2.1-1.5c-1-0.6-2-1-3.1-1.2c-1.9-0.4-3.8,0.7-4.4,2.5
				c-1.3,0.1-2.6,0-3.8-0.4C1301.2,975.2,1302.6,973.4,1304.4,972.3z"/>
			<polygon class="st3" points="1319.1,983.6 1322.4,981.7 1322.4,981.7 1319.1,983.6 			"/>
			<path class="st39" d="M1339,987.7c-1.3,0.6-2.8,0.6-4.1,0l6.2-3.6C1341,985.6,1340.2,986.9,1339,987.7z"/>
			<path class="st3" d="M1339,988c1.2-0.8,1.9-2.1,2.1-3.5c0.1-0.6,0.2-1.3,0.2-1.9c0-2.2-0.5-4.3-1.3-6.3c-0.5-1.2-1-2.4-1.7-3.5
				l3.3-1.9c0.6,1.1,1.2,2.3,1.7,3.5c1,2.5,1.6,5.2,1.7,7.9c0,0.1,0,0.2,0,0.4c0,4.1-1.5,7.2-4.1,8.7c-1.2,0.7-2.5,1-3.8,1
				c-2.1-0.1-4.1-0.7-5.8-1.8c-0.1,0-0.2-0.1-0.3-0.2l3.9-2.3C1336.2,988.6,1337.7,988.6,1339,988z"/>
			<path class="st3" d="M1323.6,961.2c0.4-0.2,0.9-0.4,1.4-0.6c2.4-0.8,5.3-0.3,8.2,1.4c1.3,0.8,2.5,1.7,3.6,2.7
				c1.9,1.8,3.5,3.9,4.8,6.1l-3.3,1.9c-1.3-2.3-3-4.3-5-6c-0.6-0.5-1.3-1-2.1-1.5c-1-0.6-2-1-3.1-1.2c-0.9-0.2-1.9,0-2.7,0.4
				c-0.8,0.5-1.4,1.2-1.7,2.1c-1.3,0.1-2.6,0-3.8-0.4C1320.5,964.1,1321.8,962.3,1323.6,961.2z"/>
			<polygon class="st3" points="1338.3,972.5 1341.6,970.6 1341.6,970.6 1338.3,972.5 			"/>
			<path class="st39" d="M1358.3,976.6c-1.3,0.6-2.8,0.6-4.1,0l6.2-3.6C1360.2,974.5,1359.5,975.8,1358.3,976.6z"/>
			<path class="st3" d="M1358.2,976.9c1.2-0.8,1.9-2.1,2.1-3.5c0.1-0.6,0.2-1.3,0.2-1.9c0-2.2-0.5-4.3-1.3-6.3
				c-0.5-1.2-1-2.4-1.7-3.5l3.3-1.9c0.6,1.1,1.2,2.3,1.7,3.5c1.1,2.5,1.6,5.2,1.7,7.9c0,0.1,0,0.2,0,0.4c0,4.1-1.5,7.2-4.1,8.7
				c-1.2,0.7-2.5,1-3.8,1c-2.1-0.1-4.1-0.7-5.8-1.8c-0.1,0-0.2-0.1-0.3-0.2l3.9-2.3C1355.5,977.5,1357,977.5,1358.2,976.9z"/>
			<path class="st3" d="M1342.9,950.1c0.4-0.2,0.9-0.4,1.4-0.6c2.4-0.8,5.3-0.3,8.2,1.4c1.3,0.8,2.5,1.7,3.6,2.7
				c1.9,1.8,3.5,3.8,4.8,6.1l-3.3,1.9c-1.3-2.3-3-4.3-5-6c-0.6-0.5-1.3-1-2.1-1.5c-1-0.6-2-1-3.1-1.2c-0.9-0.2-1.9,0-2.7,0.4
				c-0.8,0.5-1.4,1.2-1.7,2.1c-1.3,0.1-2.6,0-3.8-0.4C1339.7,952.9,1341,951.2,1342.9,950.1z"/>
			<polygon class="st3" points="1357.6,961.4 1360.9,959.5 1360.9,959.5 1357.6,961.4 			"/>
			<path class="st40" d="M1131.8,1003.1L1131.8,1003.1l9.3-5.3c0.1-0.7,0.5-1.3,1.1-1.7l8.2-4.7l0.3-0.2l0,0l1.6-0.9l0,0l0.2-0.1
				l2.4-1.4c0.6-0.3,1.4-0.4,2-0.1l109.9-62.6c0.1-0.1,0.2-0.1,0.3-0.1l0,0l16.1-4.9l5.1-1.5l-3.9,3.6l-12.3,11.3l0,0l-0.3,0.2
				l-109.9,62.6c-0.1,0.7-0.5,1.3-1.1,1.7l-1.3,0.7l0,0l-1.3,0.8l0,0l-1.6,0.9l0,0l-1.3,0.8l0,0l-7.2,4.1l0,0
				c-0.6,0.3-1.4,0.4-2,0.1l-9.2,5.3l0,0c-0.8,0.4-1.7,0.3-2.5-0.3c-2-1.3-3.3-3.6-3.5-6C1130.7,1004.5,1131.1,1003.6,1131.8,1003.1
				z"/>
			<polygon class="st41" points="1283.3,920.1 1287.2,916.5 1282.1,918 			"/>
			<path class="st42" d="M1266.1,922.9l4.8,8.5l12.4-11.3l0,0c0.1-0.1,0.2-0.3,0.2-0.5c0-0.6-0.3-1.1-0.8-1.4
				c-0.2-0.1-0.3-0.2-0.5-0.1l0,0L1266.1,922.9z"/>
			<path class="st43" d="M1153.9,986.8l4.9,8.6l111.8-63.7c0.7-0.5,1.1-1.4,1-2.3c-0.1-2.5-1.4-4.7-3.4-6.1
				c-0.7-0.5-1.7-0.6-2.5-0.2L1153.9,986.8z"/>
			<polygon class="st3" points="1219,960.1 1219,958.5 1180.2,980.7 1180.2,982.3 			"/>
			<polygon class="st3" points="1178.5,983.2 1178.5,981.6 1169,987.1 1169,988.7 			"/>
			<path class="st44" d="M1156.4,987c2,1.4,3.3,3.6,3.4,6.1c0,2.2-1.6,3.1-3.5,2c-2.1-1.4-3.3-3.6-3.5-6.1
				C1152.9,986.8,1154.5,985.9,1156.4,987z"/>
			<path class="st41" d="M1156.4,989.8c0.6,0.4,1,1.1,1.1,1.9c0,0.7-0.5,1-1.1,0.6c-0.6-0.4-1-1.1-1.1-1.9
				C1155.3,989.7,1155.8,989.5,1156.4,989.8z"/>
			<path class="st45" d="M1141.1,993l5.8,10.2l12.7-7.3c0.9-0.6,1.3-1.6,1.2-2.7c-0.1-2.9-1.7-5.6-4.1-7.2c-0.8-0.6-2-0.8-2.9-0.3
				L1141.1,993z"/>
			<path class="st46" d="M1144,993.3c2.4,1.6,4,4.3,4.1,7.2c0,2.7-1.9,3.7-4.2,2.4c-2.4-1.6-4-4.3-4.1-7.2
				C1139.9,993,1141.8,992,1144,993.3z"/>
			<path class="st47" d="M1145.3,992.6c2.4,1.6,4,4.3,4.1,7.2c0.1,1-0.4,2.1-1.2,2.7l1.3-0.8c0.9-0.6,1.3-1.6,1.2-2.7
				c-0.1-2.9-1.7-5.6-4.1-7.2c-0.8-0.6-2-0.7-2.9-0.3l-1.3,0.8C1143.4,991.8,1144.5,991.9,1145.3,992.6z"/>
			<path class="st47" d="M1148.3,990.9c2.4,1.6,4,4.3,4.1,7.2c0.1,1-0.4,2.1-1.2,2.7l1.3-0.8c0.9-0.6,1.3-1.6,1.2-2.7
				c-0.1-2.9-1.7-5.6-4.1-7.2c-0.8-0.6-2-0.7-2.9-0.3l-1.3,0.8C1146.3,990.2,1147.4,990.3,1148.3,990.9z"/>
			<path class="st47" d="M1151.2,989.2c2.4,1.6,4,4.3,4.1,7.2c0.1,1-0.4,2.1-1.2,2.7l1.3-0.8c0.9-0.6,1.3-1.6,1.2-2.7
				c-0.1-2.9-1.7-5.6-4.1-7.2c-0.9-0.6-2-0.7-2.9-0.3l-1.3,0.8C1149.2,988.5,1150.3,988.6,1151.2,989.2z"/>
			<path class="st47" d="M1154.1,987.6c2.5,1.6,4,4.3,4.1,7.2c0.1,1-0.4,2.1-1.2,2.7l1.3-0.8c0.9-0.6,1.3-1.6,1.2-2.7
				c-0.1-2.9-1.7-5.6-4.1-7.2c-0.8-0.6-2-0.7-2.9-0.3l-1.3,0.8C1152.1,986.8,1153.3,986.9,1154.1,987.6z"/>
			<path class="st48" d="M1130.8,1000l4.9,8.6l10.7-6.1c0.7-0.5,1.1-1.4,1-2.3c-0.1-2.5-1.4-4.7-3.5-6.1c-0.7-0.5-1.7-0.6-2.5-0.3
				L1130.8,1000z"/>
			<path class="st49" d="M1133.2,1000.2c2,1.4,3.3,3.6,3.4,6.1c0,2.2-1.6,3.1-3.5,2c-2.1-1.4-3.3-3.6-3.5-6.1
				C1129.7,1000,1131.3,999.1,1133.2,1000.2z"/>
			<path class="st31" d="M1365.5,974l-1.3-0.8c0.1-0.6,0.1-1.2,0.1-1.8c0-0.1,0-0.2,0-0.4c-0.1-2.7-0.7-5.4-1.7-7.9l0,0l1.3-0.7V958
				l0,0l-1.8-1v-6.8L1235.2,877c-2.6-1.3-5.6-1.3-8.2,0l-168.8,97.5c-1,0.4-1.6,1.3-1.7,2.4v7.5l-0.1,0.1c-1,0.4-1.6,1.3-1.7,2.4
				l0,0v3.9c0.1,1.2,0.7,2.2,1.6,2.8l0.2,0.1v5.4l-7.8,4.5c-2,1.2-2,3,0,4.2l129.2,74.6c2.3,1.2,5,1.2,7.3,0l180.4-104.1
				C1367.5,977,1367.5,975.2,1365.5,974z M1362.2,959l-4.2,2.5l0,0l4.1-2.4l0,0L1362.2,959z M1054.9,987.6c0,0,0-0.1-0.1-0.1
				C1054.8,987.5,1054.9,987.5,1054.9,987.6L1054.9,987.6z"/>
			<polygon class="st3" points="834,505.9 877.2,527.9 703.9,628.9 550.6,538.3 			"/>
			<polygon class="st19" points="550.6,524.9 550.6,538.3 662.3,603.1 834,503.8 834,490.5 			"/>
			<polygon class="st15" points="662.3,588.8 834,490.5 721.5,426.2 550.6,524.9 			"/>
			<polyline class="st50" points="550.6,526.7 662.1,591.5 834,492.4 			"/>
			<polyline class="st50" points="550.6,530 662.1,594.8 834,495.7 			"/>
			<polyline class="st50" points="550.6,533.3 662.1,598.1 834,499 			"/>
			<polyline class="st50" points="834,502.3 662.1,601.4 550.6,536.6 			"/>
			<polygon class="st19" points="697.8,452.7 733.3,473.2 730.4,474.9 694.9,454.4 			"/>
			<polygon class="st19" points="686,459.5 757,500.5 754.1,502.2 683,461.2 			"/>
			<polyline class="st19" points="680.1,462.9 751.1,503.9 748.2,505.6 677.1,464.6 			"/>
			<polyline class="st19" points="674.2,466.3 745.2,507.4 742.2,509 671.2,468 			"/>
			<polyline class="st19" points="668.2,469.8 739.3,510.8 736.3,512.5 665.3,471.5 			"/>
			<polyline class="st19" points="662.3,473.2 733.3,514.2 730.4,515.9 659.3,474.9 			"/>
			<polyline class="st19" points="650.5,480 721.5,521 718.5,522.7 647.5,481.7 			"/>
			<polyline class="st19" points="620.9,497.1 691.9,538.1 689,539.8 617.9,498.8 			"/>
			<polyline class="st19" points="644.5,483.4 715.6,524.4 712.6,526.1 641.6,485.1 			"/>
			<polyline class="st19" points="638.6,486.8 680.1,510.8 677.1,512.5 635.7,488.5 			"/>
			<polyline class="st19" points="615,500.5 656.4,524.4 653.4,526.1 612,502.2 			"/>
			<polyline class="st19" points="609,503.9 650.5,527.9 647.5,529.6 606.1,505.6 			"/>
			<polygon class="st19" points="703.8,449.2 739.3,469.8 736.3,471.5 700.8,451 			"/>
			<polygon class="st19" points="721.5,439 757,459.5 754.1,461.2 718.5,440.7 			"/>
			<path class="st51" d="M779.1,471.4c-12.6,0.6-24.8,4.6-35.3,11.7c-5.7,3.9-19.5,15.5-7.1,20.4c11.2,4.5,25.8,2.5,36.7-2
				c7.8-3.3,22.2-11.7,14.9-22c-0.6-0.9-2-0.1-1.4,0.8c6,10-12.2,17.6-19.1,19.8c-8.9,2.8-18.4,3.2-27.5,1c-4-1-5.8-5.1-3-8.4
				c1.4-1.6,3-3,4.7-4.3c3.4-2.8,7.1-5.2,11-7.3c8.1-4.3,17-7,26.2-7.7C780.4,473.3,780.4,471.3,779.1,471.4L779.1,471.4z"/>
			<path class="st51" d="M752.5,492c7.1-4.2,13.7-9.5,20.2-14.5l-2.1-0.9c0.3,3.6-2.8,7.1-4.6,10l-5.3,8.7c-0.4,0.7-0.2,1.6,0.5,2.1
				c0.7,0.4,1.6,0.2,2.1-0.5c2.2-3.8,4.5-7.7,6.7-11.5c1.6-2.8,3.4-5.4,3-8.7c0-0.7-0.6-1.2-1.3-1.2c-0.3,0-0.6,0.1-0.8,0.3
				c-6.4,5.1-13.1,9.7-19.5,14.9C750.7,491.3,751.7,492.4,752.5,492L752.5,492z"/>
			<path class="st51" d="M760,487.5c2,0.2,4.1,0.8,6.1,0.5c1.6-0.3,1.3-2.6,0-3c-1.8-0.6-4.1-0.3-6.1-0.4S758.2,487.3,760,487.5
				L760,487.5z"/>
			<path class="st51" d="M774.5,481.5c0,1.5,0.3,2.9,0.2,4.4c-0.1,1.6-0.5,3.2-1,4.7c-0.5,1.4,1.7,2,2.2,0.6
				c1.1-3.1,1.6-7.1,0.2-10.2C775.7,480.3,774.4,480.7,774.5,481.5L774.5,481.5z"/>
			<path class="st51" d="M772.4,486.3c0.8,0.6,1.8,0.8,2.8,0.8c1.1,0,2.2,0.1,3.4,0.1c0.9,0,1.5-0.7,1.5-1.6c0-0.9-0.7-1.5-1.5-1.5
				c-1.1,0-2.2,0-3.4,0.1c-1-0.1-2,0.2-2.8,0.8C772,485.2,772,485.8,772.4,486.3C772.4,486.2,772.4,486.3,772.4,486.3L772.4,486.3z"
				/>
			<g class="st52">
				<polygon class="st4" points="721.5,426.2 550.6,524.9 550.6,538.3 662.3,603.1 834,503.8 834,490.5 				"/>
			</g>
			<path class="st3" d="M709.9,469.7c-18.5,10.7-18.6,28-0.2,38.7s48.3,10.7,66.8,0s18.6-28,0.2-38.7S728.4,459,709.9,469.7z"/>
			<path class="st53" d="M703.7,406.2c-0.3,0.2-0.3,0.5,0,0.6c0.3,0.2,0.8,0.2,1.1,0c0.3-0.2,0.3-0.5,0-0.6
				C704.5,406,704.1,406,703.7,406.2z"/>
			<g>
				<path class="st5" d="M670.6,411.3c1.5,0.3,2.9,0.8,4.2,1.7c0.8,0.6,1.3,1.5,2.2,2c-2.2-1.3-4.6-2.1-7.2-2.3
					c-2.3-0.1-3.6,0.5-4.6,2.7c-2.3,4.6-2,10.3-1.1,15.3c1.5,7.7,4.5,14.9,9,21.3c3.4,5.1,7.8,9.5,13,12.8c-0.4-0.2-3.7,2.2-4,2.3
					l-6.1,3.5c-0.2,0.2-0.5,0.3-0.8,0.4c-1.4,0.1-4.1-2.7-5.1-3.6c-3.6-3.4-6.8-7.3-9.3-11.5c-5.3-8.8-9.3-19.6-8.2-30
					c0.5-4.6,2.2-9.5,6-12.4C662.1,410.8,666.5,410,670.6,411.3z"/>
			</g>
			<path class="st10" d="M675.3,409.7c-13.1-7.6-25.8-0.3-25.8,17.5s12.5,39.7,25.7,47.3c0-0.2,0-3.3,0-3.5
				c-11.4-6.6-22.7-26.1-22.6-42s11.4-22.4,22.8-15.8L675.3,409.7z"/>
			<path class="st4" d="M649.1,422c0.8-5.5,2.7-10.8,6.7-14.8c2.8-2.7,6.1-4.8,9.7-6.1c1.4-0.5,2.8-0.9,4.3-1.1
				c0.7-0.1,1.4-0.2,2.1-0.2c0.2,0,1.5,0,0.8,0c4.8,0,9.4,1.3,13.6,3.7c-0.2-0.1-2.7,1.6-2.8,1.7c-2.2,1.3-4.3,2.5-6.5,3.8
				c-0.3,0.2-0.7,0.4-1,0.6c-1,0.4-1.4-0.1-2.4-0.6c-2.3-1.1-4.8-1.8-7.4-2c-11.5-0.7-16.7,10.6-16.7,20.5c0,9.3,3.1,18.6,7.5,26.7
				c2.5,4.7,5.5,9.1,9.1,13c1.6,1.8,3.4,3.4,5.2,4.9c0.9,0.7,1.8,1.3,2.7,1.9c1.1,0.7,1.7,1.8,2.8,2.4c-14-8.3-23.6-24.4-26.9-40
				C648.8,431.6,648.5,426.8,649.1,422z"/>
			<path class="st3" d="M674.3,404.6l0.2,78.5c0,7,4.6,13.9,13.7,19.2c18.4,10.7,48.3,10.7,66.8,0c9.3-5.4,14-12.4,13.9-19.5
				l-0.2-78.5c0,7-4.6,14.1-13.9,19.5c-18.5,10.7-48.4,10.7-66.8,0C679,418.5,674.4,411.5,674.3,404.6z"/>
			<path class="st3" d="M688.3,385.1c-18.5,10.7-18.6,28-0.2,38.7s48.3,10.7,66.8,0s18.6-28,0.2-38.7S706.8,374.4,688.3,385.1z"/>
			<path class="st54" d="M688.1,423.8c-2.1-1.2-4-2.6-5.9-4.2c-2.2-7.2,1.5-15,11.2-20.6c15.7-9,41-9,56.6,0
				c9.6,5.6,13.2,13.2,11,20.4c-1.9,1.6-3.9,3.1-6.1,4.3C736.4,434.5,706.5,434.5,688.1,423.8z"/>
			<path class="st5" d="M687.9,423.4c4.6,2.6,9.6,4.6,14.8,5.8v78.5c-5.1-1.2-10-3.2-14.6-5.7c-9.1-5.3-13.7-12.2-13.7-19.2
				l-0.2-78.5C674.2,411.2,678.8,418.1,687.9,423.4z"/>
			<path class="st5" d="M721.6,382.8c11.6,0,22.5,2.6,30.5,7.2c7,4.1,10.9,9.2,10.9,14.4s-3.9,10.4-11.1,14.5
				c-8.1,4.7-19,7.2-30.6,7.2s-22.5-2.6-30.5-7.2c-7-4.1-10.9-9.2-10.9-14.3s4-10.4,11.1-14.5C699.1,385.4,710,382.8,721.6,382.8
				L721.6,382.8 M721.6,377.1c-12.1,0-24.2,2.7-33.4,8c-18.5,10.7-18.6,28-0.2,38.7c9.2,5.4,21.3,8,33.4,8s24.2-2.7,33.5-8
				c18.5-10.7,18.6-28,0.2-38.7C745.7,379.8,733.7,377.1,721.6,377.1L721.6,377.1z"/>
			<g>
				<polygon class="st10" points="990.4,652.9 1095.9,714.2 1051.8,739.7 946.2,678.4 				"/>
				<path class="st3" d="M945.7,679.2c0.1-0.2,0.2-0.4,0.3-0.5c0.1-0.1,0.2-0.2,0.3-0.2l105.5,61.3c-0.1,0.1-0.2,0.1-0.3,0.2
					c-0.1,0.2-0.2,0.4-0.3,0.5c-0.7,1.7-0.7,5.1,0.2,5.6l-105.6-61.3C945,684.3,944.9,680.8,945.7,679.2z"/>
				<path class="st5" d="M999,642.8c2-4.5,2.3-8.7,1-11.7l-28.7-63.5l105.6,61.3l28.7,63.5c1.4,2.9,1,7.2-0.9,11.6
					c-1,2.3-2.4,4.5-4,6.4c-1.3,1.5-2.8,2.8-4.5,3.8l-105.6-61.3c1.7-1,3.2-2.3,4.5-3.8C996.6,647.2,998,645.1,999,642.8z"/>
				<path class="st3" d="M1051.8,739.7l44.2-25.5c3.8-2.4,6.8-6,8.6-10.2c2-4.4,2.3-8.7,1-11.7l-28.7-63.5l-0.2-1.1l-0.2-61.8
					c0.1-1.9,1.1-3.7,2.8-4.8c1.5-0.9,2.7-0.2,2.7,1.6l0.2,61.2l28.6,63c2,4.5,1.4,11.2-1.5,17.9s-7.8,12.5-13.1,15.6l-44.2,25.5
					C1050.3,746.9,1050.3,740.5,1051.8,739.7z"/>
				<path class="st55" d="M971.3,502.5c0.2-0.6,0.6-1.1,1-1.6c0.4-0.4,0.8-0.7,1.2-1c0.5-0.4,1.3-0.5,1.9-0.2L1081,561
					c-0.6-0.3-1.3-0.2-1.9,0.2c-0.5,0.3-0.9,0.6-1.2,1c-0.4,0.5-0.8,1-1,1.6c-0.3,0.7-0.5,1.4-0.5,2.1l0.2,61.8l0.2,1.1l-105.6-61.3
					l-0.2-1.1l-0.2-61.8C970.8,503.9,971,503.2,971.3,502.5z"/>
			</g>
			<g id="_1">
				<polygon class="st3" points="1246.3,758.7 1254.7,753.8 1254.8,423.8 1246.4,428.7 				"/>
				<polygon class="st10" points="1246.4,428.7 1254.8,423.8 815.5,170.1 807.1,175.1 				"/>
				<polygon class="st5" points="807.1,175.1 807,505.1 1246.3,758.7 1246.4,428.7 				"/>
				<polygon class="st7" points="1244.5,430.2 809.1,178.8 809.2,464.7 1244.5,716.1 				"/>
			</g>
			<polygon class="st15" points="1013.6,562.7 829.8,456.6 829.8,218.2 1013.6,324.3 			"/>
			<polygon class="st5" points="982.6,344.2 852.6,269.2 852.6,266.3 982.6,341.3 			"/>
			<polygon class="st5" points="982.6,352.8 852.6,277.8 852.6,274.9 982.6,349.9 			"/>
			<polygon class="st5" points="982.6,361.4 852.6,286.4 852.6,283.5 982.6,358.5 			"/>
			<polygon class="st5" points="982.6,419.5 852.6,344.4 852.6,341.6 982.6,416.6 			"/>
			<polygon class="st5" points="982.6,428.1 852.6,353 852.6,350.2 982.6,425.2 			"/>
			<polygon class="st5" points="982.6,436.7 852.6,361.6 852.6,358.8 982.6,433.8 			"/>
			<polygon class="st5" points="982.6,370 852.6,295 852.6,292.1 982.6,367.1 			"/>
			<polygon class="st5" points="982.6,378.6 852.6,303.5 852.6,300.7 982.6,375.7 			"/>
			<polygon class="st5" points="982.6,387.2 852.6,312.1 852.6,309.3 982.6,384.3 			"/>
			<polygon class="st5" points="919.4,359.3 852.6,320.7 852.6,317.9 919.4,356.4 			"/>
			<polygon class="st5" points="976.7,529.4 904.2,487.5 904.2,404.4 976.7,446.2 			"/>
			<polygon class="st15" points="1153.5,644.4 1026.8,571.2 1026.8,390.3 1153.5,463.4 			"/>
			<path class="st4" d="M1183.5,402.3l56.3,32.4c0,0-3.5,49.4-27.5,56.5l-52.2-31.9C1160.2,459.3,1180.2,444.7,1183.5,402.3z"/>
			<g>
				
					<image style="overflow:visible;enable-background:new    ;" width="2659" height="2006" xlink:href="BFFAFDE8.png"  transform="matrix(0.24 0 0 0.24 1265.28 -19.92)">
				</image>
			</g>
			<g>
				
					<image style="overflow:visible;enable-background:new    ;" width="2659" height="2006" xlink:href="BFFAFDE9.png"  transform="matrix(0.24 0 0 0.24 1265.28 114.96)">
				</image>
			</g>
			<g>
				
					<image style="overflow:visible;enable-background:new    ;" width="2659" height="2285" xlink:href="BFFAFDEF.png"  transform="matrix(0.24 0 0 0.24 1265.28 267.12)">
				</image>
			</g>
			<path class="st4" d="M1853.2,423.7l-537.5-310.4c-7.8-4.5-14.1-16.6-14.1-27V28.5c0-10.4,6.3-15.2,14.1-10.7l537.5,310.4
				c7.8,4.5,14.1,16.6,14.1,27V413C1867.3,423.4,1861,428.2,1853.2,423.7z"/>
			<path class="st4" d="M1853.2,558.5l-537.5-310.3c-7.8-4.5-14.1-16.6-14.1-27v-57.8c0-10.4,6.3-15.2,14.1-10.7L1853.2,463
				c7.8,4.5,14.1,16.6,14.1,27v57.9C1867.3,558.3,1861,563,1853.2,558.5z"/>
			<path class="st4" d="M1848,777l-527.2-304.3c-10.7-6.2-19.3-22.7-19.3-36.9V320.1c0-14.2,8.7-20.8,19.3-14.6L1848,609.9
				c10.7,6.2,19.3,22.7,19.3,36.9v115.6C1867.3,776.6,1858.6,783.2,1848,777z"/>
			<path class="st56" d="M1853.2,423.7l-537.5-310.4c-7.8-4.5-14.1-16.6-14.1-27V28.5c0-10.4,6.3-15.2,14.1-10.7l537.5,310.4
				c7.8,4.5,14.1,16.6,14.1,27V413C1867.3,423.4,1861,428.2,1853.2,423.7z"/>
			<path class="st56" d="M1853.2,558.5l-537.5-310.3c-7.8-4.5-14.1-16.6-14.1-27v-57.8c0-10.4,6.3-15.2,14.1-10.7L1853.2,463
				c7.8,4.5,14.1,16.6,14.1,27v57.9C1867.3,558.3,1861,563,1853.2,558.5z"/>
			<path class="st56" d="M1848,777l-527.2-304.3c-10.7-6.2-19.3-22.7-19.3-36.9V320.1c0-14.2,8.7-20.8,19.3-14.6L1848,609.9
				c10.7,6.2,19.3,22.7,19.3,36.9v115.6C1867.3,776.6,1858.6,783.2,1848,777z"/>
			<text transform="matrix(0.89 0.51 0 1 1400.0201 134.5601)" class="st15 st57 st58">12 August 2023</text>
			<text transform="matrix(0.89 0.51 0 1 1400.0201 267.0699)" class="st15 st57 st58">26 August 2023</text>
			<text transform="matrix(0.89 0.51 0 1 1313.1898 45.2502)" class="st15 st57 st59">Start</text>
			<text transform="matrix(0.89 0.51 0 1 1320.4004 189.1702)" class="st15 st57 st59">End</text>
			<text transform="matrix(0.89 0.51 0 1 1310.0903 343.6006)" class="st15 st57 st59">Days Counted:</text>
			<text transform="matrix(0.89 0.51 0 1 1424.27 490.6598)" class="st15 st57 st60">14 Days</text>
			<path class="st61" d="M594.4,381.3c0,0-1.6,46-21.5,64.8s-13.7,39.3-31.5,43.9c-0.4,0.1-0.8,0.2-1.2,0.3
				c-7.3,1.8-14.8,1.6-22-0.5c-2.2-0.6-4.3-1.5-6.3-2.7l0,0c0,0-15.9,34-12.3,74.9l-114-39.5l32.9-73.8l62.1-158.6l120.5,45.3
				C601.2,335.4,603.5,362.3,594.4,381.3z"/>
			<path class="st7" d="M584.4,338.3c0,0,8.7,18.5-5,37.7c0,0,5.8,40.6-11.4,59.1s-20.8,35.4-20.8,35.4s-17.2,7.5-24-4.9l-1.3-20.1
				c0,0-45.2,76.7-40,120.2l-101.4-35.4c0,0,41.3-17.2,49.1-43.5s12-44.8,12-44.8l72.4-86.2L584.4,338.3z"/>
			<path class="st54" d="M600.8,331.2c-9.6,16.3-24,29.3-41.3,37.1c0,0-1.9,21.9-16.7,27.8c0,0,5.7-36.5-15.5-32.9
				s0.7,39.5-19.7,68.7c-17.2,24.6-41.7,39.3-75.5,35.8c-6.9-0.7-13.7-2.1-20.3-4l-15.2-99c0,0-14.6-106.2,79.7-129.5
				c0,0,32.9-19,98,16.1C614.3,273,615.8,305.2,600.8,331.2z"/>
			<path class="st3" d="M600.8,331.2c-9.6,16.3-24,29.3-41.3,37.1c0,0-1.9,21.9-16.7,27.8c0,0,5.7-36.5-15.5-32.9
				s0.7,39.5-19.7,68.7c-17.2,24.6-41.7,39.3-75.5,35.8c0-13.8,2.4-30.5,12.6-38c19-13.9,21.9-24.1,21.9-24.1
				c-41.7,16.1-62.2-34.4-62.2-34.4l66.5-127.9c33.6,4.4,31.5,41.7,31.5,41.7C584.5,234.1,598.6,311.9,600.8,331.2z"/>
			<path class="st62" d="M540.2,490.3c-7.3,1.8-14.8,1.6-22-0.5l-6.3-2.7l0,0l6-15.3C526.7,476.1,534.3,482.5,540.2,490.3z"/>
			<path class="st54" d="M423,363c-65.1,68,2.9,103.8-81.9,133c0.6-0.7,26.8-29.8,6.6-81.9c-20.5-52.6-18.3-181.3,52.6-204.7
				c39.4-13,56.7-6,64.2,2.9c3.6,4.3,5.7,9.6,5.9,15.2C470.5,227.6,488.1,295,423,363z"/>
			<path class="st3" d="M423,363c-65.1,68,2.9,103.8-81.9,133c41.1-25.1,33.5-55.4,23.2-121.1s32.2-70.2,40.2-117.5s60-45.1,60-45.1
				l0,0c3.6,4.3,5.7,9.6,5.9,15.2C470.4,227.5,488.1,295,423,363z"/>
			<path class="st3" d="M631.4,731.4c-2.4,60.6-16,103.2-16,103.2l-9.7,92.7l-5.6,53.6H336.5c19.3-83.1-16-161.6-55.7-252.7
				c-3.4-7.8-6.4-15.8-8.9-24l0,0c-11.2-35.7-13.2-70.9-12-99.5c2.6-57.9,54-100.9,110.1-93.7c3.1,0.4,6.2,1,9.3,1.7
				c2,0.5,4.1,1,6.2,1.5c43.3,11.8,84.5,26.4,120.2,43.6c18.9,8.9,37.1,19.3,54.3,31.1l0,0c42.4,29.3,69.5,63.9,71.2,103.1
				C632,705.7,631.9,719,631.4,731.4z"/>
			<path class="st6" d="M271.9,704.2c-11.2-35.7-13.2-70.9-12-99.5c2.6-57.9,54-100.9,110.1-93.7l0,0
				C260.5,532.1,271.7,701.8,271.9,704.2z"/>
			<path class="st3" d="M560.1,1087.4l-11-0.2l-364.4-7.2l-26.9-281.8c-6.2-64.6,29.5-126.5,89.2-152c24.5-10.5,54.2-15.4,89.5-9.1
				c80.1,14.2,138.7,85,172,137.5c20.4,32.3,32.6,69,35.5,107.1L560.1,1087.4z"/>
			<path class="st1" d="M560.1,1087.4l-11-0.2c-3.4-22.5-8.1-56.5-11.1-90.3c-5.2-58.2-5.6-114.9-65.4-194.2S350.1,675.1,271.5,691
				S157.8,798.2,157.8,798.2c-6.2-64.6,29.5-126.5,89.2-152c24.5-10.5,54.2-15.4,89.5-9.1c80.1,14.2,138.7,85,172,137.5
				c20.4,32.3,32.6,69,35.5,107.1L560.1,1087.4z"/>
			<path class="st63" d="M1088.9,867.4c-10.9-2.9-41.6-9.1-41.6-9.1l-27.5,4.8l34.9,3.3l36,10.4c0,0-1.3,6.7-10.5,5.4
				s-25.5-3.6-25.5-3.6l-3.2,0.5l-26.9,3.9c0,0-31.1,44.4-58.1,44.4s-38.8-1-38.8-1l-4.6,1.5l-52.5,17l0.1-52.6h50.8l39.4-58.2
				c0,0,12-15.2,28-16.5s54,0.2,54,0.2l30.7,9.2c0,0,1.9,6.6-5.6,5.8l24.9,8.2c0,0-1.8,10.8-11.7,8.2s-40.2-9.9-40.2-9.9l-31.2,4.4
				l36.7-2l50.8,17.7C1097.4,859.3,1099.8,870.3,1088.9,867.4z"/>
			<path class="st3" d="M945.8,934.6l-163.8,96.2c0,0-56.4,40.9-97.1,11.1c-19.1-14-50.9-64.8-79.2-114.7
				C573.9,871.1,546.5,816,546.5,816l12.2-203.3l1.4-23.9l0,0c1.5,0.7,95.4,48.9,140.9,249.1l27.9,82.1l177-42.9
				c0,0,5.3,0.6,12.2,5.1c6,3.9,13.3,10.8,19.1,23C941.5,914.5,944.4,924.4,945.8,934.6z"/>
			<path class="st4" d="M937.2,905.3l-228.1,77.4c0,0-44.2-155.8-77.6-251.3c-1.2-3.4-2.4-6.7-3.5-10
				c-15.3-42.8-43.3-80.4-69.2-108.7c-31.1-34-59.3-54.5-59.3-54.5l6.4-0.4c18.9,8.9,37.1,19.3,54.3,31.1l0,0
				c1.5,0.7,95.4,48.9,140.9,249.1l27.9,82.1l177-42.9c0,0,5.3,0.6,12.2,5.1C924.1,886.2,931.3,893.1,937.2,905.3z"/>
			<polygon class="st64" points="1218.5,257.3 1181.9,236.2 1181.9,284.9 1218.5,306 			"/>
			<rect x="1038.5" y="12" class="st65" width="3.6" height="238.6"/>
			<rect x="1074.1" y="32.5" class="st65" width="3.6" height="238.6"/>
			<rect x="1002.9" y="-8.6" class="st65" width="3.6" height="238.6"/>
			<rect x="1109.7" y="53.1" class="st66" width="3.6" height="238.6"/>
			<rect x="1109.7" y="53.1" class="st65" width="3.6" height="238.6"/>
			<rect x="1145.3" y="73.7" class="st65" width="3.6" height="238.6"/>
			<rect x="1180.9" y="94.2" class="st66" width="3.6" height="238.6"/>
			<rect x="1180.9" y="94.2" class="st65" width="3.6" height="238.6"/>
			<rect x="1216.5" y="114.8" class="st65" width="3.6" height="238.6"/>
			<rect x="1252.2" y="135.3" class="st66" width="3.6" height="238.6"/>
			<rect x="1252.2" y="135.3" class="st65" width="3.6" height="238.6"/>
			
				<rect x="1127.6" y="-81.6" transform="matrix(0.5005 -0.8658 0.8658 0.5005 509.2866 1009.4221)" class="st65" width="3.6" height="289.9"/>
			
				<rect x="1127.5" y="-39.4" transform="matrix(0.4983 -0.867 0.867 0.4983 474.664 1032.3273)" class="st66" width="3.6" height="290.9"/>
			
				<rect x="1127.5" y="-39.4" transform="matrix(0.4983 -0.867 0.867 0.4983 474.664 1032.3273)" class="st65" width="3.6" height="290.9"/>
			
				<rect x="1127.5" y="13.3" transform="matrix(0.5003 -0.8659 0.8659 0.5003 427.255 1056.8853)" class="st65" width="3.6" height="289.9"/>
			
				<rect x="1127.6" y="60.9" transform="matrix(0.5005 -0.8658 0.8658 0.5005 385.9952 1080.5653)" class="st66" width="3.6" height="289.9"/>
			
				<rect x="1127.6" y="60.9" transform="matrix(0.5005 -0.8658 0.8658 0.5005 385.9952 1080.5653)" class="st65" width="3.6" height="289.9"/>
			
				<rect x="1127.6" y="108.3" transform="matrix(0.5005 -0.8658 0.8658 0.5005 344.8907 1104.2701)" class="st65" width="3.6" height="289.9"/>
			
				<rect x="1127.6" y="155.8" transform="matrix(0.5005 -0.8658 0.8658 0.5005 303.7948 1127.99)" class="st66" width="3.6" height="289.9"/>
			
				<rect x="1127.6" y="155.8" transform="matrix(0.5005 -0.8658 0.8658 0.5005 303.7948 1127.99)" class="st65" width="3.6" height="289.9"/>
			<path class="st64" d="M1174.5,142.5c-3.3,4-7,7.6-11,10.9c-2.1,1.7-4.3,3.4-6.5,4.9c-1.9,1.2-3.4,1.7-4.3,3.8
				c-0.3,0.6-0.1,1.4,0.5,1.7c0.2,0.1,0.4,0.2,0.6,0.2c4.2,0.3,8.9-4.7,11.9-7.4c4.1-3.7,7.8-7.9,11-12.4
				C1177.5,142.9,1175.4,141.2,1174.5,142.5L1174.5,142.5z"/>
			<path class="st64" d="M1155,138.7l9.9,21.6c2.8,6.2,5.3,14.8,10,19.8c1.4,1.5,3.5-0.1,3.2-1.9c-0.5-3.4-2.5-6.5-4.1-9.6
				c-1.8-3.5-3.6-7-5.4-10.5l-10.8-21C1156.9,135.2,1154.1,136.9,1155,138.7L1155,138.7z"/>
			<path class="st64" d="M1067.6,33.7c-3.3,4-7,7.6-11,10.9c-2.1,1.7-4.3,3.4-6.5,4.9c-1.9,1.2-3.4,1.7-4.3,3.8
				c-0.3,0.6-0.1,1.4,0.5,1.7c0.2,0.1,0.4,0.2,0.6,0.2c4.2,0.3,8.9-4.7,11.9-7.3c4.1-3.7,7.8-7.9,11-12.4
				C1070.7,34.1,1068.6,32.5,1067.6,33.7L1067.6,33.7z"/>
			<path class="st64" d="M1048.1,30l9.9,21.6c2.9,6.2,5.3,14.8,10,19.8c1.4,1.5,3.5-0.1,3.2-1.9c-0.5-3.4-2.5-6.5-4.1-9.6
				c-1.8-3.5-3.6-7-5.4-10.5L1051,28.3C1050,26.4,1047.2,28.1,1048.1,30L1048.1,30z"/>
			<path class="st64" d="M1103.2,54.1c-3.3,4-7,7.6-11,10.9c-2.1,1.7-4.3,3.4-6.5,4.9c-1.9,1.2-3.4,1.7-4.3,3.8
				c-0.3,0.6-0.1,1.4,0.5,1.7c0.2,0.1,0.4,0.2,0.6,0.2c4.2,0.3,8.9-4.7,11.9-7.3c4.1-3.7,7.8-7.9,11-12.4
				C1106.3,54.6,1104.2,52.9,1103.2,54.1L1103.2,54.1z"/>
			<path class="st64" d="M1083.7,50.4l9.9,21.6c2.9,6.2,5.3,14.8,10,19.8c1.4,1.5,3.5-0.1,3.2-1.9c-0.5-3.4-2.5-6.5-4-9.6
				c-1.8-3.5-3.6-7-5.4-10.5l-10.8-21C1085.6,46.8,1082.9,48.5,1083.7,50.4L1083.7,50.4z"/>
			<path class="st64" d="M1138.8,74.6c-3.3,4-7,7.6-11,10.9c-2.1,1.7-4.3,3.4-6.5,4.9c-1.9,1.2-3.4,1.7-4.3,3.8
				c-0.3,0.6-0.1,1.4,0.5,1.7c0.2,0.1,0.4,0.2,0.6,0.2c4.2,0.3,8.9-4.7,11.9-7.4c4.1-3.7,7.8-7.9,11-12.4
				C1141.9,75,1139.8,73.4,1138.8,74.6L1138.8,74.6z"/>
			<path class="st64" d="M1119.3,70.8l9.9,21.6c2.9,6.2,5.3,14.8,10,19.8c1.4,1.5,3.5-0.1,3.2-1.9c-0.5-3.5-2.5-6.5-4.1-9.6
				c-1.8-3.5-3.6-7-5.4-10.5l-10.8-21C1121.2,67.3,1118.5,69,1119.3,70.8L1119.3,70.8z"/>
			<path class="st64" d="M1030.2,57.6c-3.3,4-7,7.6-11,10.9c-2.1,1.7-4.3,3.4-6.5,4.9c-1.9,1.2-3.4,1.7-4.3,3.8
				c-0.3,0.6-0.1,1.4,0.6,1.7c0.2,0.1,0.4,0.1,0.6,0.1c4.2,0.3,8.9-4.7,11.9-7.4c4.1-3.7,7.8-7.9,11-12.4
				C1033.3,58,1031.3,56.4,1030.2,57.6L1030.2,57.6z"/>
			<path class="st64" d="M1010.7,53.9l9.9,21.6c2.9,6.2,5.3,14.8,10,19.8c1.4,1.5,3.5-0.1,3.2-1.9c-0.5-3.5-2.5-6.5-4.1-9.6
				c-1.8-3.5-3.6-7-5.4-10.5l-10.8-21C1012.6,50.3,1009.8,52,1010.7,53.9L1010.7,53.9z"/>
			<path class="st64" d="M1067.6,80.7c-3.3,4-7,7.6-11,10.9c-2.1,1.7-4.3,3.4-6.5,4.9c-1.9,1.2-3.4,1.7-4.3,3.8
				c-0.3,0.6-0.1,1.4,0.5,1.7c0.2,0.1,0.4,0.2,0.6,0.2c4.2,0.3,8.9-4.7,11.9-7.3c4.1-3.7,7.8-7.9,11-12.4
				C1070.7,81.1,1068.6,79.5,1067.6,80.7L1067.6,80.7z"/>
			<path class="st64" d="M1048.1,77l9.9,21.6c2.9,6.2,5.3,14.8,10,19.8c1.4,1.5,3.5-0.1,3.2-1.9c-0.5-3.4-2.5-6.5-4.1-9.6
				c-1.8-3.5-3.6-7-5.4-10.5l-10.8-21C1050,73.4,1047.2,75.1,1048.1,77L1048.1,77z"/>
			<path class="st64" d="M1103.2,101.2c-3.3,4-7,7.6-11,10.9c-2.1,1.8-4.3,3.4-6.5,4.9c-1.9,1.2-3.4,1.7-4.3,3.8
				c-0.3,0.6-0.1,1.4,0.5,1.7c0.2,0.1,0.4,0.2,0.6,0.2c4.2,0.3,8.9-4.7,11.9-7.3c4.1-3.7,7.8-7.9,11-12.4
				C1106.3,101.6,1104.2,100,1103.2,101.2L1103.2,101.2z"/>
			<path class="st64" d="M1083.7,97.4l9.9,21.6c2.9,6.2,5.3,14.8,10,19.8c1.4,1.5,3.5-0.1,3.2-1.9c-0.5-3.4-2.5-6.5-4-9.6
				c-1.8-3.5-3.6-7-5.4-10.5l-10.8-21C1085.6,93.9,1082.9,95.6,1083.7,97.4L1083.7,97.4z"/>
			<path class="st64" d="M1138.8,121.6c-3.3,4-7,7.6-11,10.9c-2.1,1.7-4.3,3.4-6.5,4.9c-1.9,1.2-3.4,1.7-4.3,3.8
				c-0.3,0.6-0.1,1.4,0.5,1.7c0.2,0.1,0.4,0.2,0.6,0.2c4.2,0.3,8.9-4.7,11.9-7.4c4.1-3.7,7.8-7.9,11-12.4
				C1141.9,122,1139.8,120.4,1138.8,121.6L1138.8,121.6z"/>
			<path class="st64" d="M1119.3,117.9l9.9,21.6c2.9,6.2,5.3,14.8,10,19.8c1.4,1.5,3.5-0.1,3.2-1.9c-0.5-3.4-2.5-6.5-4.1-9.6
				c-1.8-3.5-3.6-7-5.4-10.5l-10.8-21C1121.2,114.3,1118.5,116,1119.3,117.9L1119.3,117.9z"/>
			<path class="st64" d="M1174.1,94.9c-3.3,4-7,7.6-11,10.9c-2.1,1.8-4.3,3.4-6.5,4.9c-1.9,1.2-3.4,1.7-4.3,3.8
				c-0.3,0.6-0.1,1.4,0.5,1.7c0.2,0.1,0.4,0.2,0.6,0.2c4.2,0.3,8.9-4.7,11.9-7.3c4.1-3.7,7.8-7.9,11-12.4
				C1177.2,95.3,1175.1,93.7,1174.1,94.9L1174.1,94.9z"/>
			<path class="st64" d="M1154.6,91.1l9.9,21.6c2.9,6.2,5.3,14.8,10,19.8c1.4,1.5,3.5-0.1,3.2-1.9c-0.5-3.4-2.5-6.5-4.1-9.6
				c-1.8-3.5-3.6-7-5.4-10.5l-10.8-21C1156.5,87.6,1153.7,89.3,1154.6,91.1L1154.6,91.1z"/>
			<path class="st64" d="M1210.4,115.9c-3.3,4-7,7.6-11,10.9c-2.1,1.7-4.3,3.4-6.5,4.9c-1.9,1.2-3.4,1.7-4.3,3.8
				c-0.3,0.6-0.1,1.4,0.5,1.7c0.2,0.1,0.4,0.2,0.6,0.2c4.2,0.3,8.9-4.7,11.9-7.4c4.1-3.7,7.8-7.9,11-12.4
				C1213.4,116.3,1211.4,114.7,1210.4,115.9L1210.4,115.9z"/>
			<path class="st64" d="M1190.9,112.2l9.9,21.6c2.8,6.2,5.3,14.8,10,19.8c1.4,1.5,3.5-0.1,3.2-1.9c-0.5-3.4-2.5-6.5-4.1-9.6
				c-1.8-3.5-3.6-7-5.4-10.6l-10.8-21C1192.8,108.6,1190,110.3,1190.9,112.2L1190.9,112.2z"/>
			<path class="st64" d="M1245.5,136c-3.3,4-7,7.6-11,10.9c-2.1,1.7-4.3,3.4-6.5,4.9c-1.9,1.2-3.4,1.7-4.3,3.8
				c-0.3,0.6-0.1,1.4,0.5,1.7c0.2,0.1,0.4,0.2,0.6,0.2c4.2,0.3,8.9-4.7,11.9-7.4c4.1-3.7,7.8-7.9,11-12.4
				C1248.5,136.4,1246.4,134.8,1245.5,136L1245.5,136z"/>
			<path class="st64" d="M1226,132.2l9.9,21.6c2.9,6.2,5.3,14.8,10,19.8c1.4,1.5,3.5-0.1,3.2-1.9c-0.5-3.4-2.5-6.5-4-9.6
				c-1.8-3.5-3.6-7-5.4-10.5l-10.8-21.1C1227.9,128.6,1225.2,130.3,1226,132.2L1226,132.2z"/>
			<text transform="matrix(0.89 0.51 0 1 1186.5004 178.4903)" class="st65 st57 st67">12</text>
			<text transform="matrix(0.89 0.51 0 1 1009.5005 122.0902)" class="st65 st57 st67">14</text>
			<text transform="matrix(0.89 0.51 0 1 1043.1301 141.1502)" class="st65 st57 st67">15</text>
			<text transform="matrix(0.89 0.51 0 1 1080.7802 163.6102)" class="st65 st57 st67">16</text>
			<text transform="matrix(0.89 0.51 0 1 1116.4001 183.6901)" class="st65 st57 st67">17</text>
			<text transform="matrix(0.89 0.51 0 1 1152.0201 203.7798)" class="st65 st57 st67">18</text>
			<text transform="matrix(0.89 0.51 0 1 1187.6409 225.0608)" class="st65 st57 st67">19</text>
			<text transform="matrix(0.89 0.51 0 1 1223.0203 245.9701)" class="st65 st57 st67">20</text>
			<text transform="matrix(0.89 0.51 0 1 1009.5005 170.66)" class="st65 st57 st67">21</text>
			<text transform="matrix(0.89 0.51 0 1 1043.1301 189.7103)" class="st65 st57 st67">22</text>
			<text transform="matrix(0.89 0.51 0 1 1080.7802 212.1703)" class="st65 st57 st67">23</text>
			<text transform="matrix(0.89 0.51 0 1 1116.4001 232.2599)" class="st65 st57 st67">24</text>
			<text transform="matrix(0.89 0.51 0 1 1152.0201 252.3398)" class="st65 st57 st67">25</text>
			<text transform="matrix(0.89 0.51 0 1 1223.0203 199.4301)" class="st65 st57 st67">13</text>
			<path class="st65" d="M1187.5,272.6c0.7,3.1,1.4,6.3,2.1,9.4c0.2,0.7,0.3,1.5,1.1,1.7s1.4-0.6,1.8-1.1c1.1-1.2,2.3-2.3,3.3-3.6
				c0.3-0.3,0.4-0.8,0.2-1.2c-0.1-0.2-0.3-0.4-0.6-0.5c-0.4-0.1-0.7,0-1,0.2c-0.7,0.7-1.3,1.5-2,2.2l-1,1.1l-0.5,0.5l-0.3,0.3
				c-0.2,0.2-0.2,0.2,0,0.1h0.5h-0.1l0.4,0.2c0.2,0.2,0-0.3-0.1-0.4l-0.2-0.6l-0.3-1.3l-0.7-2.5c-0.4-1.7-0.9-3.4-1.3-5.1
				c-0.1-0.4-0.6-0.5-0.9-0.4C1187.6,272,1187.4,272.3,1187.5,272.6L1187.5,272.6z"/>
			<path class="st65" d="M1188.5,278.1c0.8-0.6,1.6-1.1,2.4-1.6l1.3-0.7l0.7-0.4c0.3-0.2,0.7-0.3,0.7-0.7c0.1-0.3-0.1-0.6-0.3-0.8
				c-0.6-0.3-1.3,0.2-1.8,0.5c-0.5,0.3-0.9,0.5-1.3,0.8c-0.9,0.6-1.7,1.3-2.5,2c-0.2,0.2-0.2,0.6,0,0.9S1188.3,278.3,1188.5,278.1
				L1188.5,278.1z"/>
			<path class="st65" d="M1185.6,274.8c1.1-0.9,2.2-1.7,3.5-2.4c0.6-0.3,1.2-0.6,1.8-0.8c0.3-0.1,0.7-0.2,1-0.3s0.9-0.3,1.1-0.7
				c0.2-0.3,0.1-0.8-0.2-1c-0.7-0.5-1.8,0.1-2.5,0.4c-0.7,0.3-1.4,0.7-2,1.1c-1.3,0.8-2.4,1.8-3.4,3c-0.2,0.2-0.1,0.6,0.1,0.7
				C1185.2,274.9,1185.5,274.9,1185.6,274.8L1185.6,274.8z"/>
			<path class="st65" d="M1196.5,270.5c-0.2,1.2-0.5,2.3-0.8,3.5c-0.2,0.6-0.3,1.1-0.5,1.7c-0.2,0.6-0.4,1.1-0.6,1.7
				c-0.1,0.4,0.1,0.8,0.5,1c0.4,0.2,0.8,0,1.1-0.4c0.3-0.6,0.5-1.2,0.6-1.9c0.2-0.6,0.3-1.2,0.4-1.8c0.2-1.2,0.4-2.5,0.5-3.7
				C1197.7,270,1196.7,269.8,1196.5,270.5z"/>
			<path class="st65" d="M1194.2,272.5c0.9,0.9,1.7,1.8,2.4,2.7c0.2,0.2,0.4,0.5,0.6,0.7l0.1,0.1l0.1,0.1l0.1,0.1l0.1,0.2
				c0.2,0.2,0.4,0.5,0.5,0.7c0.2,0.4,0.6,0.8,1.1,1c0.5,0.1,1.1-0.2,1.2-0.7c0-0.1,0-0.2,0-0.3c0-0.5-0.3-1-0.6-1.3
				c-0.2-0.2-0.4-0.5-0.6-0.7c-0.4-0.5-0.8-0.9-1.3-1.3c-0.9-0.9-1.9-1.7-3-2.4C1194.4,271.1,1193.8,272,1194.2,272.5L1194.2,272.5z
				"/>
			<path class="st65" d="M1201.3,276.6c-0.1-2.9,0.3-5.7,1.1-8.5h-1.5c0.4,1.4,0.8,2.8,1.3,4.1c0.3,0.7,0.5,1.4,0.8,2
				c0.2,0.7,0.6,1.4,1.1,2c0.3,0.3,0.8,0.3,1.2,0c0.1-0.1,0.2-0.3,0.2-0.6c-0.1-0.8-0.3-1.5-0.7-2.2c-0.3-0.6-0.6-1.2-0.8-1.9
				c-0.6-1.3-1.1-2.6-1.6-4c-0.1-0.4-0.6-0.7-1-0.5c-0.3,0.1-0.5,0.3-0.5,0.5c-0.8,2.9-1.1,5.9-1,8.9c0,0.4,0.3,0.7,0.7,0.7
				C1200.9,277.3,1201.3,277,1201.3,276.6L1201.3,276.6z"/>
			<path class="st65" d="M1201,275.1l1.2-0.7l0.6-0.3l0.3-0.2l0.2-0.1c0.1-0.1,0.3-0.2,0.3-0.4c0.1-0.3-0.1-0.7-0.4-0.7c0,0,0,0,0,0
				c-0.2,0-0.4,0-0.5,0.1l-0.2,0.1l-0.3,0.2l-0.6,0.4l-1.2,0.7c-0.3,0.2-0.3,0.6-0.1,0.9C1200.4,275.2,1200.7,275.3,1201,275.1
				L1201,275.1z"/>
			<path class="st65" d="M1204.7,269.1c0.2,2.2,0.8,4.3,1.7,6.2l1.7-1c-0.9-1.7-1.9-3.6-1.5-5.6l-1.4,0.2c0.4,0.6,0.8,1.3,1.2,1.9
				s1,1.2,1.4,1.8c0.4,0.3,1.1,0.3,1.4-0.2c0.1-0.1,0.2-0.3,0.2-0.5c-0.1-1.4,0-2.7,0.2-4.1h-1.8c0.8,2.1,1.5,4.2,2.1,6.3l2-1.2
				l-0.1-0.1c-0.5-0.4-1.2-0.4-1.6,0c-0.2,0.2-0.3,0.5-0.3,0.8v0.1c0,0.7,0.5,1.2,1.2,1.2c0.1,0,0.2,0,0.3,0c0.6-0.2,1-0.9,0.8-1.5
				c0-0.1-0.1-0.2-0.1-0.2c-0.9-1.9-1.8-3.9-2.5-5.9c-0.1-0.4-0.5-0.7-0.9-0.7c-0.4,0-0.8,0.3-0.9,0.7c-0.4,1.5-0.5,3.1-0.3,4.6
				l1.6-0.7c-0.5-0.5-0.9-1-1.4-1.6s-0.9-1-1.3-1.5s-1.2-0.5-1.4,0.2c-0.5,2.3,0.3,4.6,1.2,6.8c0.2,0.5,0.7,0.8,1.2,0.7
				c0.5-0.2,0.8-0.7,0.7-1.2c-0.4-1-0.8-1.9-1.2-2.8s-0.7-1.9-1-2.9C1205.8,268.2,1204.6,268.3,1204.7,269.1L1204.7,269.1z"/>
			<path class="st65" d="M1211.3,261.6c0,1.7,0.1,3.3,0.4,4.9c0.2,0.8,0.4,1.6,0.6,2.3c0.1,0.4,0.2,0.7,0.4,1
				c0.2,0.5,0.4,0.9,0.8,1.3c0.4,0.4,0.9,0.4,1.3,0.2c0.4-0.3,0.6-0.8,0.5-1.2c-0.2-0.7-0.5-1.4-0.8-2.1c-0.3-0.7-0.5-1.4-0.7-2.1
				c-0.4-1.4-0.6-2.9-0.7-4.3c-0.2-0.5-0.8-0.8-1.3-0.6C1211.6,261.1,1211.4,261.3,1211.3,261.6L1211.3,261.6z"/>
			<path class="st65" d="M1214.8,274.9l-0.3,0.6c-0.1,0.3-0.1,0.6,0.1,0.8c0.1,0.1,0.2,0.2,0.3,0.2c0.2,0.1,0.3,0.1,0.5,0
				c0.1,0,0.2-0.1,0.2-0.1l0.1-0.1c0,0,0.1-0.1,0.1-0.1c0.1-0.1,0.2-0.3,0.3-0.5c0-0.1,0-0.2,0-0.3v-0.1c0-0.1,0-0.2,0-0.3
				c0-0.1-0.1-0.2-0.1-0.3c0-0.1-0.1-0.2-0.2-0.2c-0.1-0.1-0.1-0.1-0.2-0.2h-0.1c-0.2-0.1-0.4-0.2-0.6-0.2h-0.2c-0.1,0-0.2,0-0.2,0
				c-0.2,0.1-0.4,0.2-0.6,0.3c-0.1,0.1-0.1,0.1-0.2,0.2c-0.1,0.1-0.1,0.1-0.1,0.2c-0.1,0.1-0.1,0.2-0.2,0.3c0,0.1-0.1,0.2-0.1,0.4
				v0.2c0,0.1,0.1,0.2,0.2,0.3c0.1,0.1,0.3,0.3,0.4,0.3c0.1,0,0.3,0,0.4,0c0.1,0,0.2-0.1,0.3-0.1c0.1-0.1,0.2-0.1,0.2-0.2
				c0.1-0.1,0.1-0.3,0.2-0.4l-0.1,0.2c0-0.1,0.1-0.2,0.1-0.2l-0.1,0.2l0.1-0.1l-0.2,0.1c0.1,0,0.1-0.1,0.2-0.1l-0.2,0.1l0.2,0h-0.2
				h0.2h-0.2h0.1l-0.2-0.1h0.1l-0.2-0.1l0.1,0.1l-0.1-0.2v0.1l-0.1-0.2c0,0,0,0.1,0,0.1v-0.2v0.1v-0.2c0,0,0,0.1,0,0.1l0.1-0.2v0.1
				l0.1-0.1v0l0.2-0.1h-0.1l0.2-0.1l0,0l0.9,0.9l0.2-0.6c0-0.1,0-0.2,0-0.3c0-0.1,0-0.2-0.1-0.3c-0.1-0.1-0.2-0.2-0.3-0.3
				c-0.1,0-0.3,0-0.4,0c-0.2,0.1-0.3,0.2-0.4,0.3L1214.8,274.9z"/>
		</g>
	</g>
</g>
</svg>
